<svg width="152" height="48" viewBox="0 0 152 48" fill="none" xmlns="http://www.w3.org/2000/svg">
<path d="M43 20.9926C43 32.0636 30.3745 44.3018 22.0501 47.4851C21.867 47.5552 21.6994 47.3641 21.7916 47.2005C23.0696 44.9331 23.8692 41.4852 21.5 41.4852C9.62588 41.4852 0 32.3104 0 20.9926C0 9.67486 9.62588 0.5 21.5 0.5C33.3741 0.5 43 9.67486 43 20.9926Z" fill="url(#paint0_linear_2639_16906)"/>
<path d="M43 20.9926C43 32.0636 30.3745 44.3018 22.0501 47.4851C21.867 47.5552 21.6994 47.3641 21.7916 47.2005C23.0696 44.9331 23.8692 41.4852 21.5 41.4852C9.62588 41.4852 0 32.3104 0 20.9926C0 9.67486 9.62588 0.5 21.5 0.5C33.3741 0.5 43 9.67486 43 20.9926Z" fill="url(#paint1_radial_2639_16906)" fill-opacity="0.8"/>
<path d="M43 20.9926C43 32.0636 30.3745 44.3018 22.0501 47.4851C21.867 47.5552 21.6994 47.3641 21.7916 47.2005C23.0696 44.9331 23.8692 41.4852 21.5 41.4852C9.62588 41.4852 0 32.3104 0 20.9926C0 9.67486 9.62588 0.5 21.5 0.5C33.3741 0.5 43 9.67486 43 20.9926Z" fill="url(#paint2_radial_2639_16906)" fill-opacity="0.8"/>
<path d="M43 20.9926C43 32.0636 30.3745 44.3018 22.0501 47.4851C21.867 47.5552 21.6994 47.3641 21.7916 47.2005C23.0696 44.9331 23.8692 41.4852 21.5 41.4852C9.62588 41.4852 0 32.3104 0 20.9926C0 9.67486 9.62588 0.5 21.5 0.5C33.3741 0.5 43 9.67486 43 20.9926Z" fill="url(#paint3_radial_2639_16906)" fill-opacity="0.8"/>
<path d="M43 20.9926C43 32.0636 30.3745 44.3018 22.0501 47.4851C21.867 47.5552 21.6994 47.3641 21.7916 47.2005C23.0696 44.9331 23.8692 41.4852 21.5 41.4852C9.62588 41.4852 0 32.3104 0 20.9926C0 9.67486 9.62588 0.5 21.5 0.5C33.3741 0.5 43 9.67486 43 20.9926Z" fill="url(#paint4_linear_2639_16906)"/>
<path d="M43 20.9926C43 32.0636 30.3745 44.3018 22.0501 47.4851C21.867 47.5552 21.6994 47.3641 21.7916 47.2005C23.0696 44.9331 23.8692 41.4852 21.5 41.4852C9.62588 41.4852 0 32.3104 0 20.9926C0 9.67486 9.62588 0.5 21.5 0.5C33.3741 0.5 43 9.67486 43 20.9926Z" fill="url(#paint5_radial_2639_16906)" fill-opacity="0.8"/>
<path d="M43 20.9926C43 32.0636 30.3745 44.3018 22.0501 47.4851C21.867 47.5552 21.6994 47.3641 21.7916 47.2005C23.0696 44.9331 23.8692 41.4852 21.5 41.4852C9.62588 41.4852 0 32.3104 0 20.9926C0 9.67486 9.62588 0.5 21.5 0.5C33.3741 0.5 43 9.67486 43 20.9926Z" fill="url(#paint6_radial_2639_16906)" fill-opacity="0.8"/>
<path d="M43 20.9926C43 32.0636 30.3745 44.3018 22.0501 47.4851C21.867 47.5552 21.6994 47.3641 21.7916 47.2005C23.0696 44.9331 23.8692 41.4852 21.5 41.4852C9.62588 41.4852 0 32.3104 0 20.9926C0 9.67486 9.62588 0.5 21.5 0.5C33.3741 0.5 43 9.67486 43 20.9926Z" fill="url(#paint7_radial_2639_16906)" fill-opacity="0.8"/>
<path d="M9.10729 16.6538C8.97962 16.6538 8.8532 16.6776 8.73525 16.7238C8.6173 16.7701 8.51012 16.8379 8.41985 16.9233C8.32957 17.0087 8.25797 17.1102 8.20912 17.2218C8.16027 17.3335 8.13514 17.4531 8.13516 17.574V23.4528C8.13516 23.5736 8.16031 23.6933 8.20916 23.8049C8.25802 23.9166 8.32962 24.018 8.41989 24.1035C8.51016 24.1889 8.61733 24.2567 8.73527 24.3029C8.85322 24.3492 8.97963 24.373 9.10729 24.373C9.23495 24.373 9.36136 24.3492 9.47931 24.3029C9.59725 24.2567 9.70442 24.1889 9.79469 24.1035C9.88496 24.018 9.95656 23.9166 10.0054 23.8049C10.0543 23.6933 10.0794 23.5736 10.0794 23.4528V17.574C10.0794 17.4531 10.0543 17.3335 10.0055 17.2218C9.95661 17.1102 9.885 17.0087 9.79473 16.9233C9.70446 16.8379 9.59728 16.7701 9.47933 16.7238C9.36138 16.6776 9.23496 16.6538 9.10729 16.6538Z" fill="#E8FFDB"/>
<path d="M12.9965 13.1118C12.8689 13.1118 12.7425 13.1356 12.6245 13.182C12.5065 13.2283 12.3994 13.2962 12.3091 13.3818C12.2188 13.4674 12.1472 13.5691 12.0984 13.6809C12.0495 13.7928 12.0244 13.9127 12.0244 14.0338V26.9924C12.0244 27.2369 12.1268 27.4714 12.3091 27.6443C12.4915 27.8172 12.7387 27.9144 12.9965 27.9144C13.2544 27.9144 13.5016 27.8172 13.6839 27.6443C13.8662 27.4714 13.9687 27.2369 13.9687 26.9924V14.0338C13.9687 13.9127 13.9436 13.7928 13.8947 13.6809C13.8459 13.5691 13.7743 13.4674 13.684 13.3818C13.5937 13.2962 13.4865 13.2283 13.3686 13.182C13.2506 13.1356 13.1242 13.1118 12.9965 13.1118Z" fill="#E8FFDB"/>
<path d="M16.8846 8.93474C16.7569 8.93472 16.6305 8.95866 16.5125 9.00521C16.3946 9.05175 16.2874 9.11998 16.1971 9.206C16.1068 9.29202 16.0352 9.39414 15.9864 9.50653C15.9376 9.61892 15.9124 9.73938 15.9124 9.86103V31.1658C15.9124 31.4115 16.0149 31.6471 16.1972 31.8208C16.3795 31.9945 16.6267 32.0921 16.8846 32.0921C17.1424 32.0921 17.3897 31.9945 17.572 31.8208C17.7543 31.6471 17.8567 31.4115 17.8567 31.1658V9.86103C17.8567 9.73938 17.8316 9.61892 17.7827 9.50653C17.7339 9.39414 17.6623 9.29202 17.572 9.206C17.4817 9.11998 17.3746 9.05175 17.2566 9.00521C17.1387 8.95866 17.0122 8.93472 16.8846 8.93474Z" fill="#E8FFDB"/>
<path d="M20.7738 13.1118C20.6462 13.1118 20.5197 13.1356 20.4018 13.182C20.2838 13.2283 20.1767 13.2962 20.0864 13.3818C19.9961 13.4674 19.9245 13.5691 19.8757 13.6809C19.8268 13.7928 19.8017 13.9127 19.8017 14.0338V26.9924C19.8017 27.2369 19.9041 27.4714 20.0864 27.6443C20.2687 27.8172 20.516 27.9144 20.7738 27.9144C21.0316 27.9144 21.2789 27.8172 21.4612 27.6443C21.6435 27.4714 21.7459 27.2369 21.7459 26.9924V14.0338C21.746 13.9127 21.7208 13.7928 21.672 13.6809C21.6231 13.5691 21.5515 13.4674 21.4613 13.3818C21.371 13.2962 21.2638 13.2283 21.1459 13.182C21.0279 13.1356 20.9015 13.1118 20.7738 13.1118Z" fill="#E8FFDB"/>
<path d="M24.6606 16.6538C24.5329 16.6538 24.4065 16.6776 24.2886 16.7238C24.1706 16.7701 24.0634 16.8379 23.9732 16.9233C23.8829 17.0087 23.8113 17.1102 23.7624 17.2218C23.7136 17.3335 23.6885 17.4531 23.6885 17.574V23.4528C23.6885 23.6969 23.7909 23.9309 23.9732 24.1035C24.1555 24.276 24.4028 24.373 24.6606 24.373C24.9184 24.373 25.1657 24.276 25.348 24.1035C25.5303 23.9309 25.6327 23.6969 25.6327 23.4528V17.574C25.6328 17.4531 25.6076 17.3335 25.5588 17.2218C25.5099 17.1102 25.4383 17.0087 25.348 16.9233C25.2578 16.8379 25.1506 16.7701 25.0326 16.7238C24.9147 16.6776 24.7883 16.6538 24.6606 16.6538Z" fill="#E8FFDB"/>
<path d="M28.8665 13.7413C28.7388 13.7412 28.6124 13.7651 28.4944 13.8114C28.3765 13.8577 28.2693 13.9256 28.179 14.0112C28.0888 14.0969 28.0172 14.1985 27.9683 14.3104C27.9195 14.4222 27.8943 14.5421 27.8943 14.6632V27.6219C27.8943 27.8664 27.9968 28.1009 28.1791 28.2738C28.3614 28.4467 28.6086 28.5438 28.8665 28.5438C29.1243 28.5438 29.3716 28.4467 29.5539 28.2738C29.7362 28.1009 29.8386 27.8664 29.8386 27.6219V14.6632C29.8386 14.5421 29.8135 14.4222 29.7646 14.3104C29.7158 14.1985 29.6442 14.0969 29.5539 14.0112C29.4636 13.9256 29.3565 13.8577 29.2385 13.8114C29.1206 13.7651 28.9941 13.7412 28.8665 13.7413Z" fill="#E8FFDB"/>
<path d="M32.4367 16.6538C32.309 16.6538 32.1826 16.6776 32.0646 16.7238C31.9467 16.7701 31.8395 16.8379 31.7492 16.9233C31.6589 17.0087 31.5873 17.1102 31.5385 17.2218C31.4896 17.3335 31.4645 17.4531 31.4645 17.574V23.4528C31.4645 23.6969 31.5669 23.9309 31.7493 24.1035C31.9316 24.276 32.1788 24.373 32.4367 24.373C32.6945 24.373 32.9417 24.276 33.1241 24.1035C33.3064 23.9309 33.4088 23.6969 33.4088 23.4528V17.574C33.4088 17.4531 33.3837 17.3335 33.3348 17.2218C33.286 17.1102 33.2144 17.0087 33.1241 16.9233C33.0338 16.8379 32.9266 16.7701 32.8087 16.7238C32.6907 16.6776 32.5643 16.6538 32.4367 16.6538Z" fill="#E8FFDB"/>
<path d="M35.355 20.4679C35.355 19.9663 35.7902 19.5597 36.3271 19.5597C36.864 19.5597 37.2993 19.9663 37.2993 20.4679C37.2993 20.9694 36.864 21.376 36.3271 21.376C35.7902 21.376 35.355 20.9694 35.355 20.4679Z" fill="#E8FFDB"/>
<path d="M47.2718 20.7578L42.5332 3.64746H45.2446L48.5733 16.898H48.7318L52.194 3.64746H54.8803L58.3425 16.9063H58.501L61.8214 3.64746H64.5411L59.7941 20.7578H57.1995L53.6039 7.94176H53.4704L49.8747 20.7578H47.2718Z" fill="#57616B"/>
<path d="M68.716 13.1384V20.7578H66.2215V3.64746H68.6826V10.0137H68.8411C69.1414 9.32306 69.6003 8.77444 70.2176 8.36784C70.835 7.96125 71.6414 7.75795 72.637 7.75795C73.5158 7.75795 74.2833 7.93897 74.9396 8.30101C75.6014 8.66304 76.1131 9.20331 76.4746 9.92181C76.8417 10.6347 77.0252 11.5259 77.0252 12.5953V20.7578H74.5308V12.8961C74.5308 11.9548 74.2888 11.2251 73.805 10.7071C73.3211 10.1836 72.6481 9.92181 71.786 9.92181C71.1965 9.92181 70.6681 10.0471 70.2009 10.2978C69.7393 10.5484 69.375 10.916 69.1081 11.4006C68.8467 11.8796 68.716 12.4588 68.716 13.1384Z" fill="#57616B"/>
<path d="M83.6132 21.0419C82.8012 21.0419 82.0671 20.8915 81.4108 20.5907C80.7545 20.2844 80.2345 19.8416 79.8507 19.2623C79.4725 18.6831 79.2834 17.9729 79.2834 17.1319C79.2834 16.4078 79.4224 15.8118 79.7005 15.344C79.9786 14.8761 80.354 14.5057 80.8268 14.2328C81.2995 13.9599 81.8279 13.7538 82.4119 13.6146C82.9959 13.4753 83.591 13.3695 84.1972 13.2971C84.9647 13.208 85.5876 13.1356 86.066 13.0799C86.5443 13.0186 86.8919 12.9211 87.1088 12.7875C87.3257 12.6538 87.4341 12.4366 87.4341 12.1358V12.0773C87.4341 11.3477 87.2284 10.7823 86.8168 10.3813C86.4108 9.98029 85.8046 9.77978 84.9981 9.77978C84.1583 9.77978 83.4964 9.96637 83.0126 10.3395C82.5342 10.7071 82.2033 11.1165 82.0198 11.5677L79.6755 11.033C79.9536 10.2532 80.3596 9.62383 80.8935 9.14483C81.433 8.66026 82.0532 8.30936 82.7539 8.09214C83.4547 7.86935 84.1916 7.75795 84.9647 7.75795C85.4764 7.75795 86.0187 7.81922 86.5915 7.94176C87.17 8.05872 87.7094 8.27594 88.21 8.59342C88.7161 8.9109 89.1305 9.36483 89.4531 9.95523C89.7756 10.5401 89.9369 11.3003 89.9369 12.2361V20.7578H87.5009V19.0033H87.4008C87.2395 19.3264 86.9975 19.6438 86.675 19.9558C86.3524 20.2677 85.938 20.5267 85.4319 20.7327C84.9258 20.9388 84.3196 21.0419 83.6132 21.0419ZM84.1555 19.0367C84.8451 19.0367 85.4347 18.9003 85.9241 18.6274C86.4191 18.3544 86.7945 17.998 87.0504 17.558C87.3118 17.1124 87.4425 16.6362 87.4425 16.1293V14.4751C87.3535 14.5642 87.1811 14.6478 86.9252 14.7257C86.675 14.7981 86.3885 14.8622 86.066 14.9179C85.7434 14.968 85.4291 15.0154 85.1232 15.0599C84.8173 15.0989 84.5615 15.1323 84.3557 15.1602C83.8718 15.2214 83.4297 15.3245 83.0292 15.4693C82.6344 15.6141 82.3173 15.823 82.0782 16.0959C81.8446 16.3633 81.7278 16.7197 81.7278 17.1653C81.7278 17.7835 81.9558 18.2514 82.4119 18.5689C82.8679 18.8808 83.4492 19.0367 84.1555 19.0367Z" fill="#57616B"/>
<path d="M98.7712 7.92505V9.93016H91.7717V7.92505H98.7712ZM93.6488 4.85053H96.1433V16.9899C96.1433 17.4744 96.2156 17.8392 96.3602 18.0843C96.5048 18.3238 96.6911 18.4881 96.9191 18.5772C97.1527 18.6608 97.4058 18.7026 97.6783 18.7026C97.8785 18.7026 98.0537 18.6886 98.2039 18.6608C98.3541 18.6329 98.4709 18.6107 98.5543 18.5939L99.0048 20.6575C98.8602 20.7132 98.6544 20.7689 98.3874 20.8246C98.1205 20.8859 97.7868 20.9193 97.3863 20.9249C96.73 20.936 96.1182 20.8191 95.5509 20.574C94.9836 20.3289 94.5248 19.9502 94.1744 19.4378C93.824 18.9253 93.6488 18.282 93.6488 17.5078V4.85053Z" fill="#57616B"/>
<path d="M110.457 11.058L108.196 11.4591C108.101 11.1694 107.951 10.8937 107.745 10.632C107.545 10.3702 107.272 10.1557 106.928 9.98865C106.583 9.82155 106.152 9.73801 105.635 9.73801C104.928 9.73801 104.339 9.89675 103.866 10.2142C103.393 10.5261 103.157 10.9299 103.157 11.4256C103.157 11.8545 103.315 12.1998 103.632 12.4616C103.949 12.7234 104.461 12.9378 105.167 13.1049L107.203 13.5728C108.382 13.8457 109.261 14.2662 109.839 14.8343C110.418 15.4025 110.707 16.1405 110.707 17.0483C110.707 17.817 110.484 18.502 110.039 19.1036C109.6 19.6995 108.985 20.1674 108.196 20.5072C107.411 20.8469 106.502 21.0168 105.468 21.0168C104.033 21.0168 102.862 20.7105 101.955 20.0978C101.049 19.4795 100.493 18.6023 100.287 17.4661L102.698 17.0985C102.848 17.7278 103.157 18.2041 103.624 18.5271C104.091 18.8446 104.7 19.0033 105.451 19.0033C106.269 19.0033 106.922 18.8334 107.411 18.4937C107.901 18.1484 108.146 17.7278 108.146 17.2321C108.146 16.8311 107.995 16.4941 107.695 16.2212C107.4 15.9483 106.947 15.7422 106.335 15.603L104.166 15.1268C102.97 14.8538 102.086 14.4194 101.513 13.8234C100.946 13.2275 100.662 12.4728 100.662 11.5593C100.662 10.8018 100.874 10.139 101.296 9.57091C101.719 9.0028 102.303 8.56 103.048 8.24252C103.794 7.91948 104.647 7.75795 105.609 7.75795C106.994 7.75795 108.084 8.05872 108.88 8.66026C109.675 9.25622 110.201 10.0555 110.457 11.058Z" fill="#57616B"/>
<path d="M116.709 21.0419C115.897 21.0419 115.163 20.8915 114.506 20.5907C113.85 20.2844 113.33 19.8416 112.946 19.2623C112.568 18.6831 112.379 17.9729 112.379 17.1319C112.379 16.4078 112.518 15.8118 112.796 15.344C113.074 14.8761 113.45 14.5057 113.922 14.2328C114.395 13.9599 114.923 13.7538 115.507 13.6146C116.091 13.4753 116.687 13.3695 117.293 13.2971C118.06 13.208 118.683 13.1356 119.161 13.0799C119.64 13.0186 119.987 12.9211 120.204 12.7875C120.421 12.6538 120.53 12.4366 120.53 12.1358V12.0773C120.53 11.3477 120.324 10.7823 119.912 10.3813C119.506 9.98029 118.9 9.77978 118.094 9.77978C117.254 9.77978 116.592 9.96637 116.108 10.3395C115.63 10.7071 115.299 11.1165 115.115 11.5677L112.771 11.033C113.049 10.2532 113.455 9.62383 113.989 9.14483C114.529 8.66026 115.149 8.30936 115.849 8.09214C116.55 7.86935 117.287 7.75795 118.06 7.75795C118.572 7.75795 119.114 7.81922 119.687 7.94176C120.266 8.05872 120.805 8.27594 121.306 8.59342C121.812 8.9109 122.226 9.36483 122.549 9.95523C122.871 10.5401 123.032 11.3003 123.032 12.2361V20.7578H120.596V19.0033H120.496C120.335 19.3264 120.093 19.6438 119.771 19.9558C119.448 20.2677 119.034 20.5267 118.527 20.7327C118.021 20.9388 117.415 21.0419 116.709 21.0419ZM117.251 19.0367C117.941 19.0367 118.53 18.9003 119.02 18.6274C119.515 18.3544 119.89 17.998 120.146 17.558C120.407 17.1124 120.538 16.6362 120.538 16.1293V14.4751C120.449 14.5642 120.277 14.6478 120.021 14.7257C119.771 14.7981 119.484 14.8622 119.161 14.9179C118.839 14.968 118.525 15.0154 118.219 15.0599C117.913 15.0989 117.657 15.1323 117.451 15.1602C116.967 15.2214 116.525 15.3245 116.125 15.4693C115.73 15.6141 115.413 15.823 115.174 16.0959C114.94 16.3633 114.823 16.7197 114.823 17.1653C114.823 17.7835 115.051 18.2514 115.507 18.5689C115.963 18.8808 116.545 19.0367 117.251 19.0367Z" fill="#57616B"/>
<path d="M125.885 25.5701V7.92505H128.321V10.0054H128.53C128.674 9.73801 128.883 9.42888 129.155 9.07799C129.428 8.72709 129.806 8.42076 130.29 8.15898C130.774 7.89163 131.413 7.75795 132.209 7.75795C133.243 7.75795 134.167 8.01973 134.979 8.54329C135.791 9.06685 136.427 9.82155 136.889 10.8074C137.356 11.7933 137.59 12.9796 137.59 14.3665C137.59 15.7534 137.359 16.9425 136.897 17.9339C136.436 18.9198 135.802 19.68 134.995 20.2147C134.189 20.7439 133.268 21.0084 132.234 21.0084C131.455 21.0084 130.818 20.8776 130.323 20.6158C129.834 20.354 129.45 20.0477 129.172 19.6968C128.894 19.3459 128.68 19.034 128.53 18.761H128.38V25.5701H125.885ZM128.329 14.3414C128.329 15.2437 128.46 16.0346 128.722 16.7141C128.983 17.3937 129.361 17.9256 129.856 18.3099C130.351 18.6886 130.957 18.878 131.675 18.878C132.42 18.878 133.043 18.6803 133.544 18.2848C134.044 17.8838 134.422 17.3407 134.678 16.6557C134.94 15.9706 135.07 15.1992 135.07 14.3414C135.07 13.4948 134.942 12.7345 134.687 12.0606C134.436 11.3867 134.058 10.8547 133.552 10.4649C133.051 10.075 132.426 9.88004 131.675 9.88004C130.952 9.88004 130.34 10.0666 129.839 10.4398C129.344 10.813 128.969 11.3337 128.713 12.0021C128.457 12.6705 128.329 13.4503 128.329 14.3414Z" fill="#57616B"/>
<path d="M139.915 25.5701V7.92505H142.351V10.0054H142.559C142.704 9.73801 142.912 9.42888 143.185 9.07799C143.458 8.72709 143.836 8.42076 144.32 8.15898C144.803 7.89163 145.443 7.75795 146.238 7.75795C147.273 7.75795 148.196 8.01973 149.008 8.54329C149.82 9.06685 150.457 9.82155 150.919 10.8074C151.386 11.7933 151.619 12.9796 151.619 14.3665C151.619 15.7534 151.389 16.9425 150.927 17.9339C150.465 18.9198 149.831 19.68 149.025 20.2147C148.218 20.7439 147.298 21.0084 146.263 21.0084C145.485 21.0084 144.848 20.8776 144.353 20.6158C143.864 20.354 143.48 20.0477 143.202 19.6968C142.924 19.3459 142.709 19.034 142.559 18.761H142.409V25.5701H139.915ZM142.359 14.3414C142.359 15.2437 142.49 16.0346 142.751 16.7141C143.013 17.3937 143.391 17.9256 143.886 18.3099C144.381 18.6886 144.987 18.878 145.704 18.878C146.45 18.878 147.073 18.6803 147.573 18.2848C148.074 17.8838 148.452 17.3407 148.708 16.6557C148.969 15.9706 149.1 15.1992 149.1 14.3414C149.1 13.4948 148.972 12.7345 148.716 12.0606C148.466 11.3867 148.088 10.8547 147.582 10.4649C147.081 10.075 146.455 9.88004 145.704 9.88004C144.981 9.88004 144.37 10.0666 143.869 10.4398C143.374 10.813 142.999 11.3337 142.743 12.0021C142.487 12.6705 142.359 13.4503 142.359 14.3414Z" fill="#57616B"/>
<path d="M47.3525 40.3634V23.2531H57.9476V25.4754H49.9303V30.6887H57.1884V32.9027H49.9303V40.3634H47.3525Z" fill="#949AA0"/>
<path d="M64.131 40.6475C63.319 40.6475 62.5848 40.4971 61.9285 40.1963C61.2722 39.89 60.7522 39.4472 60.3685 38.8679C59.9903 38.2887 59.8012 37.5785 59.8012 36.7375C59.8012 36.0134 59.9402 35.4174 60.2183 34.9496C60.4964 34.4817 60.8718 34.1113 61.3446 33.8384C61.8173 33.5655 62.3457 33.3594 62.9296 33.2202C63.5136 33.0809 64.1087 32.9751 64.715 32.9027C65.4825 32.8136 66.1054 32.7412 66.5837 32.6855C67.062 32.6242 67.4096 32.5267 67.6266 32.3931C67.8435 32.2594 67.9519 32.0422 67.9519 31.7414V31.6829C67.9519 30.9533 67.7461 30.3879 67.3346 29.9869C66.9285 29.5859 66.3223 29.3854 65.5159 29.3854C64.676 29.3854 64.0142 29.572 63.5303 29.9451C63.052 30.3127 62.7211 30.7221 62.5375 31.1733L60.1933 30.6386C60.4714 29.8588 60.8774 29.2294 61.4113 28.7504C61.9508 28.2659 62.5709 27.915 63.2717 27.6977C63.9725 27.4749 64.7094 27.3636 65.4825 27.3636C65.9942 27.3636 66.5364 27.4248 67.1093 27.5474C67.6877 27.6643 68.2272 27.8815 68.7278 28.199C69.2339 28.5165 69.6482 28.9704 69.9708 29.5608C70.2934 30.1457 70.4547 30.9059 70.4547 31.8416V40.3634H68.0187V38.6089H67.9185C67.7573 38.932 67.5153 39.2494 67.1927 39.5614C66.8702 39.8733 66.4558 40.1323 65.9497 40.3383C65.4436 40.5444 64.8373 40.6475 64.131 40.6475ZM64.6733 38.6423C65.3629 38.6423 65.9525 38.5059 66.4419 38.233C66.9369 37.96 67.3123 37.6036 67.5682 37.1636C67.8296 36.718 67.9603 36.2418 67.9603 35.7349V34.0807C67.8713 34.1698 67.6989 34.2534 67.443 34.3313C67.1927 34.4037 66.9063 34.4678 66.5837 34.5235C66.2611 34.5736 65.9469 34.621 65.641 34.6655C65.3351 34.7045 65.0793 34.7379 64.8735 34.7658C64.3896 34.827 63.9475 34.9301 63.547 35.0749C63.1521 35.2197 62.8351 35.4286 62.5959 35.7015C62.3624 35.9688 62.2456 36.3253 62.2456 36.7709C62.2456 37.3891 62.4736 37.857 62.9296 38.1745C63.3857 38.4864 63.9669 38.6423 64.6733 38.6423Z" fill="#949AA0"/>
<path d="M73.3073 40.3634V27.5306H75.7183V29.5692H75.8518C76.0854 28.8785 76.497 28.3355 77.0865 27.94C77.6816 27.539 78.3546 27.3385 79.1054 27.3385C79.2612 27.3385 79.4447 27.3441 79.656 27.3552C79.8729 27.3663 80.0426 27.3803 80.1649 27.397V29.7864C80.0648 29.7586 79.8868 29.7279 79.631 29.6945C79.3752 29.6555 79.1193 29.636 78.8635 29.636C78.2739 29.636 77.7484 29.7613 77.2867 30.012C76.8307 30.257 76.4692 30.5996 76.2022 31.0396C75.9352 31.474 75.8017 31.9698 75.8017 32.5267V40.3634H73.3073Z" fill="#949AA0"/>
<path d="M81.8537 40.3634V27.5306H84.2481V29.6193H84.4066C84.6735 28.9119 85.1101 28.3605 85.7164 27.9651C86.3226 27.5641 87.0484 27.3636 87.8938 27.3636C88.7503 27.3636 89.4678 27.5641 90.0462 27.9651C90.6302 28.3661 91.0612 28.9175 91.3393 29.6193H91.4728C91.7787 28.9342 92.2653 28.3884 92.9327 27.9818C93.6002 27.5696 94.3955 27.3636 95.3187 27.3636C96.4811 27.3636 97.4294 27.7284 98.1636 28.458C98.9033 29.1877 99.2731 30.2877 99.2731 31.7581V40.3634H96.7787V31.992C96.7787 31.1231 96.5423 30.4938 96.0696 30.1039C95.5968 29.714 95.0323 29.5191 94.376 29.5191C93.564 29.5191 92.9327 29.7697 92.4822 30.271C92.0317 30.7667 91.8065 31.4044 91.8065 32.1842V40.3634H89.3204V31.8333C89.3204 31.1371 89.1035 30.5773 88.6697 30.154C88.2358 29.7307 87.6713 29.5191 86.9761 29.5191C86.5034 29.5191 86.0668 29.6444 85.6663 29.895C85.2714 30.1401 84.9516 30.4826 84.7069 30.9226C84.4678 31.3626 84.3482 31.8723 84.3482 32.4515V40.3634H81.8537Z" fill="#949AA0"/>
<path d="M105.876 40.6475C105.064 40.6475 104.33 40.4971 103.673 40.1963C103.017 39.89 102.497 39.4472 102.113 38.8679C101.735 38.2887 101.546 37.5785 101.546 36.7375C101.546 36.0134 101.685 35.4174 101.963 34.9496C102.241 34.4817 102.617 34.1113 103.089 33.8384C103.562 33.5655 104.09 33.3594 104.674 33.2202C105.258 33.0809 105.854 32.9751 106.46 32.9027C107.227 32.8136 107.85 32.7412 108.328 32.6855C108.807 32.6242 109.154 32.5267 109.371 32.3931C109.588 32.2594 109.697 32.0422 109.697 31.7414V31.6829C109.697 30.9533 109.491 30.3879 109.079 29.9869C108.673 29.5859 108.067 29.3854 107.261 29.3854C106.421 29.3854 105.759 29.572 105.275 29.9451C104.797 30.3127 104.466 30.7221 104.282 31.1733L101.938 30.6386C102.216 29.8588 102.622 29.2294 103.156 28.7504C103.696 28.2659 104.316 27.915 105.016 27.6977C105.717 27.4749 106.454 27.3636 107.227 27.3636C107.739 27.3636 108.281 27.4248 108.854 27.5474C109.432 27.6643 109.972 27.8815 110.473 28.199C110.979 28.5165 111.393 28.9704 111.716 29.5608C112.038 30.1457 112.199 30.9059 112.199 31.8416V40.3634H109.763V38.6089H109.663C109.502 38.932 109.26 39.2494 108.937 39.5614C108.615 39.8733 108.201 40.1323 107.694 40.3383C107.188 40.5444 106.582 40.6475 105.876 40.6475ZM106.418 38.6423C107.108 38.6423 107.697 38.5059 108.187 38.233C108.682 37.96 109.057 37.6036 109.313 37.1636C109.574 36.718 109.705 36.2418 109.705 35.7349V34.0807C109.616 34.1698 109.444 34.2534 109.188 34.3313C108.937 34.4037 108.651 34.4678 108.328 34.5235C108.006 34.5736 107.692 34.621 107.386 34.6655C107.08 34.7045 106.824 34.7379 106.618 34.7658C106.134 34.827 105.692 34.9301 105.292 35.0749C104.897 35.2197 104.58 35.4286 104.341 35.7015C104.107 35.9688 103.99 36.3253 103.99 36.7709C103.99 37.3891 104.218 37.857 104.674 38.1745C105.13 38.4864 105.712 38.6423 106.418 38.6423Z" fill="#949AA0"/>
<defs>
<linearGradient id="paint0_linear_2639_16906" x1="43" y1="-4.43841" x2="-1.63271" y2="47.7157" gradientUnits="userSpaceOnUse">
<stop stop-color="#007AFF"/>
<stop offset="0.527788" stop-color="#40A4E1"/>
<stop offset="1" stop-color="#E8FFDB"/>
</linearGradient>
<radialGradient id="paint1_radial_2639_16906" cx="0" cy="0" r="1" gradientUnits="userSpaceOnUse" gradientTransform="translate(11.661 -9.71739) rotate(95.6378) scale(57.4955 87.8481)">
<stop stop-color="#52B6FF"/>
<stop offset="1" stop-color="#8F41EE" stop-opacity="0"/>
</radialGradient>
<radialGradient id="paint2_radial_2639_16906" cx="0" cy="0" r="1" gradientUnits="userSpaceOnUse" gradientTransform="translate(11.4788 3.22464) rotate(64.2492) scale(23.066 62.7968)">
<stop stop-color="#9DD6FF"/>
<stop offset="1" stop-color="#E8FFDB" stop-opacity="0"/>
</radialGradient>
<radialGradient id="paint3_radial_2639_16906" cx="0" cy="0" r="1" gradientUnits="userSpaceOnUse" gradientTransform="translate(63.4068 36.4312) rotate(141.882) scale(37.5181 52.9007)">
<stop stop-color="#007AFF"/>
<stop offset="1" stop-color="#E8FFDB" stop-opacity="0"/>
</radialGradient>
<linearGradient id="paint4_linear_2639_16906" x1="43" y1="-4.43841" x2="-1.63271" y2="47.7157" gradientUnits="userSpaceOnUse">
<stop stop-color="#007AFF"/>
<stop offset="0.527788" stop-color="#40A4E1"/>
<stop offset="1" stop-color="#E8FFDB"/>
</linearGradient>
<radialGradient id="paint5_radial_2639_16906" cx="0" cy="0" r="1" gradientUnits="userSpaceOnUse" gradientTransform="translate(11.661 -9.71739) rotate(95.6378) scale(57.4955 87.8481)">
<stop stop-color="#52B6FF"/>
<stop offset="1" stop-color="#8F41EE" stop-opacity="0"/>
</radialGradient>
<radialGradient id="paint6_radial_2639_16906" cx="0" cy="0" r="1" gradientUnits="userSpaceOnUse" gradientTransform="translate(11.4788 3.22464) rotate(64.2492) scale(23.066 62.7968)">
<stop stop-color="#9DD6FF"/>
<stop offset="1" stop-color="#E8FFDB" stop-opacity="0"/>
</radialGradient>
<radialGradient id="paint7_radial_2639_16906" cx="0" cy="0" r="1" gradientUnits="userSpaceOnUse" gradientTransform="translate(63.4068 36.4312) rotate(141.882) scale(37.5181 52.9007)">
<stop stop-color="#007AFF"/>
<stop offset="1" stop-color="#E8FFDB" stop-opacity="0"/>
</radialGradient>
</defs>
</svg>
