<svg width="150" height="36" viewBox="0 0 150 36" fill="none" xmlns="http://www.w3.org/2000/svg">
<path d="M55.6583 1.6258L51.6882 16.8556H47.1974L44.7675 6.83256L42.2509 16.8556H37.7601L33.8984 1.6258H37.8686L40.0598 12.7119L42.7716 1.6258H46.8502L49.4536 12.7119L51.6665 1.6258H55.6583Z" fill="#01081B"/>
<path d="M64.9602 4.61969C66.3486 4.61969 67.4623 5.08251 68.3012 6.00816C69.14 6.91934 69.5595 8.17764 69.5595 9.78306V16.8556H65.8714V10.282C65.8714 9.4721 65.6616 8.84295 65.2422 8.39459C64.8228 7.94623 64.2587 7.72205 63.55 7.72205C62.8413 7.72205 62.2772 7.94623 61.8578 8.39459C61.4384 8.84295 61.2287 9.4721 61.2287 10.282V16.8556H57.5188V0.801392H61.2287V6.37697C61.6047 5.84183 62.1182 5.41516 62.769 5.09697C63.4198 4.77878 64.1502 4.61969 64.9602 4.61969Z" fill="#01081B"/>
<path d="M71.3998 10.781C71.3998 9.53718 71.6312 8.44521 72.094 7.5051C72.5713 6.56499 73.2149 5.84183 74.0249 5.33562C74.8348 4.8294 75.7388 4.57629 76.7367 4.57629C77.5901 4.57629 78.3349 4.74985 78.9713 5.09697C79.6221 5.44409 80.1211 5.89968 80.4682 6.46375V4.74985H84.1781V16.8556H80.4682V15.1417C80.1067 15.7058 79.6005 16.1613 78.9496 16.5085C78.3132 16.8556 77.5684 17.0291 76.715 17.0291C75.7315 17.0291 74.8348 16.776 74.0249 16.2698C73.2149 15.7491 72.5713 15.0188 72.094 14.0786C71.6312 13.1241 71.3998 12.0249 71.3998 10.781ZM80.4682 10.8027C80.4682 9.87707 80.2079 9.14668 79.6872 8.61154C79.181 8.0764 78.5591 7.80883 77.8215 7.80883C77.0839 7.80883 76.4547 8.0764 75.934 8.61154C75.4278 9.13221 75.1747 9.85538 75.1747 10.781C75.1747 11.7067 75.4278 12.4443 75.934 12.9939C76.4547 13.529 77.0839 13.7966 77.8215 13.7966C78.5591 13.7966 79.181 13.529 79.6872 12.9939C80.2079 12.4588 80.4682 11.7284 80.4682 10.8027Z" fill="#01081B"/>
<path d="M93.609 13.7098V16.8556H91.7216C90.3765 16.8556 89.3279 16.5302 88.5758 15.8793C87.8237 15.214 87.4477 14.1365 87.4477 12.6468V7.83052H85.9725V4.74985H87.4477V1.79935H91.1575V4.74985H93.5873V7.83052H91.1575V12.6902C91.1575 13.0518 91.2443 13.3121 91.4179 13.4712C91.5914 13.6303 91.8807 13.7098 92.2857 13.7098H93.609Z" fill="#01081B"/>
<path d="M100.6 17.0291C99.5444 17.0291 98.6043 16.8484 97.7799 16.4868C96.9555 16.1252 96.3046 15.6334 95.8273 15.0115C95.35 14.3751 95.0825 13.6664 95.0246 12.8854H98.691C98.7344 13.3049 98.9297 13.6447 99.2768 13.9051C99.6239 14.1654 100.051 14.2956 100.557 14.2956C101.02 14.2956 101.374 14.2088 101.62 14.0353C101.88 13.8472 102.01 13.6086 102.01 13.3193C102.01 12.9722 101.83 12.7191 101.468 12.56C101.106 12.3864 100.521 12.1984 99.7107 11.9959C98.8429 11.7934 98.1198 11.5837 97.5412 11.3668C96.9627 11.1354 96.4637 10.781 96.0443 10.3037C95.6248 9.81199 95.4151 9.15391 95.4151 8.3295C95.4151 7.63527 95.6032 7.00612 95.9792 6.44205C96.3697 5.86352 96.9338 5.40793 97.6714 5.07528C98.4235 4.74262 99.313 4.57629 100.34 4.57629C101.858 4.57629 103.052 4.95234 103.92 5.70443C104.802 6.45652 105.308 7.45448 105.438 8.69832H102.01C101.953 8.27888 101.764 7.94623 101.446 7.70035C101.143 7.45448 100.738 7.33154 100.231 7.33154C99.7975 7.33154 99.4648 7.41832 99.2334 7.59188C99.002 7.75098 98.8863 7.97516 98.8863 8.26442C98.8863 8.61154 99.0671 8.87188 99.4287 9.04543C99.8047 9.21899 100.383 9.39255 101.164 9.56611C102.061 9.79752 102.791 10.0289 103.355 10.2603C103.92 10.4773 104.411 10.8389 104.831 11.3451C105.265 11.8368 105.489 12.5021 105.503 13.341C105.503 14.0497 105.301 14.6861 104.896 15.2502C104.505 15.7998 103.934 16.2337 103.182 16.5519C102.444 16.87 101.584 17.0291 100.6 17.0291Z" fill="#01081B"/>
<path d="M107.035 10.781C107.035 9.53718 107.267 8.44521 107.729 7.5051C108.207 6.56499 108.85 5.84183 109.66 5.33562C110.47 4.8294 111.374 4.57629 112.372 4.57629C113.226 4.57629 113.97 4.74985 114.607 5.09697C115.258 5.44409 115.757 5.89968 116.104 6.46375V4.74985H119.814V16.8556H116.104V15.1417C115.742 15.7058 115.236 16.1613 114.585 16.5085C113.949 16.8556 113.204 17.0291 112.35 17.0291C111.367 17.0291 110.47 16.776 109.66 16.2698C108.85 15.7491 108.207 15.0188 107.729 14.0786C107.267 13.1241 107.035 12.0249 107.035 10.781ZM116.104 10.8027C116.104 9.87707 115.843 9.14668 115.323 8.61154C114.816 8.0764 114.195 7.80883 113.457 7.80883C112.719 7.80883 112.09 8.0764 111.569 8.61154C111.063 9.13221 110.81 9.85538 110.81 10.781C110.81 11.7067 111.063 12.4443 111.569 12.9939C112.09 13.529 112.719 13.7966 113.457 13.7966C114.195 13.7966 114.816 13.529 115.323 12.9939C115.843 12.4588 116.104 11.7284 116.104 10.8027Z" fill="#01081B"/>
<path d="M126.207 6.46375C126.569 5.89968 127.068 5.44409 127.704 5.09697C128.341 4.74985 129.085 4.57629 129.939 4.57629C130.937 4.57629 131.841 4.8294 132.651 5.33562C133.461 5.84183 134.097 6.56499 134.56 7.5051C135.037 8.44521 135.276 9.53718 135.276 10.781C135.276 12.0249 135.037 13.1241 134.56 14.0786C134.097 15.0188 133.461 15.7491 132.651 16.2698C131.841 16.776 130.937 17.0291 129.939 17.0291C129.1 17.0291 128.355 16.8556 127.704 16.5085C127.068 16.1613 126.569 15.713 126.207 15.1634V22.6264H122.497V4.74985H126.207V6.46375ZM131.501 10.781C131.501 9.85538 131.24 9.13221 130.72 8.61154C130.214 8.0764 129.584 7.80883 128.832 7.80883C128.095 7.80883 127.466 8.0764 126.945 8.61154C126.439 9.14668 126.186 9.87707 126.186 10.8027C126.186 11.7284 126.439 12.4588 126.945 12.9939C127.466 13.529 128.095 13.7966 128.832 13.7966C129.57 13.7966 130.199 13.529 130.72 12.9939C131.24 12.4443 131.501 11.7067 131.501 10.781Z" fill="#01081B"/>
<path d="M140.932 6.46375C141.293 5.89968 141.792 5.44409 142.429 5.09697C143.065 4.74985 143.81 4.57629 144.663 4.57629C145.661 4.57629 146.565 4.8294 147.375 5.33562C148.185 5.84183 148.821 6.56499 149.284 7.5051C149.762 8.44521 150 9.53718 150 10.781C150 12.0249 149.762 13.1241 149.284 14.0786C148.821 15.0188 148.185 15.7491 147.375 16.2698C146.565 16.776 145.661 17.0291 144.663 17.0291C143.824 17.0291 143.08 16.8556 142.429 16.5085C141.792 16.1613 141.293 15.713 140.932 15.1634V22.6264H137.222V4.74985H140.932V6.46375ZM146.225 10.781C146.225 9.85538 145.965 9.13221 145.444 8.61154C144.938 8.0764 144.309 7.80883 143.557 7.80883C142.819 7.80883 142.19 8.0764 141.669 8.61154C141.163 9.14668 140.91 9.87707 140.91 10.8027C140.91 11.7284 141.163 12.4588 141.669 12.9939C142.19 13.529 142.819 13.7966 143.557 13.7966C144.294 13.7966 144.924 13.529 145.444 12.9939C145.965 12.4443 146.225 11.7067 146.225 10.781Z" fill="#01081B"/>
<path d="M47.8696 19.7952V22.7674H41.6649V25.9783H46.3076V28.8637H41.6649V35.025H37.9551V19.7952H47.8696Z" fill="#01081B"/>
<path d="M49.0818 28.9505C49.0818 27.7066 49.3132 26.6146 49.776 25.6745C50.2533 24.7344 50.8969 24.0113 51.7069 23.505C52.5168 22.9988 53.4208 22.7457 54.4187 22.7457C55.2721 22.7457 56.0169 22.9193 56.6533 23.2664C57.3041 23.6135 57.8031 24.0691 58.1502 24.6332V22.9193H61.8601V35.025H58.1502V33.3111C57.7887 33.8752 57.2825 34.3308 56.6316 34.6779C55.9952 35.025 55.2504 35.1986 54.397 35.1986C53.4135 35.1986 52.5168 34.9455 51.7069 34.4393C50.8969 33.9186 50.2533 33.1882 49.776 32.2481C49.3132 31.2935 49.0818 30.1943 49.0818 28.9505ZM58.1502 28.9721C58.1502 28.0465 57.8899 27.3161 57.3692 26.781C56.863 26.2458 56.2411 25.9783 55.5035 25.9783C54.7659 25.9783 54.1367 26.2458 53.616 26.781C53.1098 27.3016 52.8567 28.0248 52.8567 28.9505C52.8567 29.8761 53.1098 30.6137 53.616 31.1633C54.1367 31.6985 54.7659 31.966 55.5035 31.966C56.2411 31.966 56.863 31.6985 57.3692 31.1633C57.8899 30.6282 58.1502 29.8978 58.1502 28.9721Z" fill="#01081B"/>
<path d="M68.2538 24.9369C68.6877 24.2716 69.23 23.7509 69.8809 23.3749C70.5317 22.9844 71.2549 22.7891 72.0504 22.7891V26.7159H71.0307C70.1051 26.7159 69.4108 26.9184 68.948 27.3233C68.4852 27.7138 68.2538 28.4081 68.2538 29.406V35.025H64.5439V22.9193H68.2538V24.9369Z" fill="#01081B"/>
<path d="M89.2703 22.7891C90.7745 22.7891 91.9677 23.2447 92.8499 24.1559C93.7466 25.0671 94.195 26.3326 94.195 27.9525V35.025H90.5069V28.4515C90.5069 27.6705 90.2972 27.0702 89.8777 26.6508C89.4728 26.2169 88.9087 26 88.1855 26C87.4624 26 86.8911 26.2169 86.4716 26.6508C86.0667 27.0702 85.8642 27.6705 85.8642 28.4515V35.025H82.1761V28.4515C82.1761 27.6705 81.9664 27.0702 81.5469 26.6508C81.142 26.2169 80.5779 26 79.8547 26C79.1316 26 78.5603 26.2169 78.1408 26.6508C77.7359 27.0702 77.5334 27.6705 77.5334 28.4515V35.025H73.8236V22.9193H77.5334V24.4379C77.9094 23.9317 78.4012 23.534 79.0086 23.2447C79.6161 22.941 80.3031 22.7891 81.0696 22.7891C81.9808 22.7891 82.7908 22.9844 83.4995 23.3749C84.2226 23.7654 84.7867 24.3222 85.1917 25.0454C85.6111 24.3801 86.1824 23.8377 86.9055 23.4183C87.6287 22.9988 88.417 22.7891 89.2703 22.7891Z" fill="#01081B"/>
<path d="M96.0519 28.9505C96.0519 27.7066 96.2834 26.6146 96.7462 25.6745C97.2235 24.7344 97.8671 24.0113 98.677 23.505C99.487 22.9988 100.391 22.7457 101.389 22.7457C102.242 22.7457 102.987 22.9193 103.623 23.2664C104.274 23.6135 104.773 24.0691 105.12 24.6332V22.9193H108.83V35.025H105.12V33.3111C104.759 33.8752 104.253 34.3308 103.602 34.6779C102.965 35.025 102.221 35.1986 101.367 35.1986C100.384 35.1986 99.487 34.9455 98.677 34.4393C97.8671 33.9186 97.2235 33.1882 96.7462 32.2481C96.2834 31.2935 96.0519 30.1943 96.0519 28.9505ZM105.12 28.9721C105.12 28.0465 104.86 27.3161 104.339 26.781C103.833 26.2458 103.211 25.9783 102.474 25.9783C101.736 25.9783 101.107 26.2458 100.586 26.781C100.08 27.3016 99.8268 28.0248 99.8268 28.9505C99.8268 29.8761 100.08 30.6137 100.586 31.1633C101.107 31.6985 101.736 31.966 102.474 31.966C103.211 31.966 103.833 31.6985 104.339 31.1633C104.86 30.6282 105.12 29.8978 105.12 28.9721Z" fill="#01081B"/>
<path d="M0 18.558C0 9.38035 7.43969 1.94037 16.6171 1.94037C25.7944 1.94037 33.2341 9.38035 33.2341 18.558C33.2341 27.7358 25.7944 35.1758 16.6171 35.1758H0V18.558Z" fill="#007AFF"/>
<path fill-rule="evenodd" clip-rule="evenodd" d="M20.7663 17.2709C21.0342 16.2944 21.56 15.4147 22.2591 14.7036C22.2953 14.6668 22.332 14.6305 22.3691 14.5945C23.0827 13.9042 23.9636 13.3846 24.9281 13.1069C23.9647 12.8294 23.0848 12.3154 22.3717 11.631C22.3322 11.593 22.2931 11.5545 22.2546 11.5155C21.5577 10.8099 21.0335 9.93641 20.7663 8.96204C20.4993 9.93531 19.9794 10.8081 19.2874 11.5134C19.2472 11.5543 19.2064 11.5948 19.1651 11.6346C18.4562 12.3173 17.5813 12.8301 16.6196 13.1069C17.5826 13.3843 18.4586 13.9024 19.1679 14.591C19.2068 14.6287 19.2452 14.6671 19.283 14.7058C19.9774 15.4164 20.4987 16.2953 20.7663 17.2709Z" fill="#E8FFDB"/>
<path fill-rule="evenodd" clip-rule="evenodd" d="M13.8374 27.8529C14.2839 26.2254 15.1604 24.7593 16.3253 23.5743C16.3857 23.5128 16.4468 23.4523 16.5086 23.3923C17.698 22.2417 19.1661 21.3758 20.7738 20.9129C19.1681 20.4505 17.7015 19.5937 16.513 18.4531C16.4471 18.3899 16.3821 18.3257 16.3178 18.2607C15.1564 17.0846 14.2828 15.6288 13.8374 14.0048C13.3923 15.6271 12.526 17.0816 11.3726 18.2571C11.3055 18.3253 11.2376 18.3927 11.1686 18.4591C9.98731 19.5969 8.52902 20.4514 6.92627 20.9129C8.53121 21.3752 9.99123 22.2389 11.1734 23.3865C11.2381 23.4494 11.3021 23.5131 11.3653 23.5777C12.5225 24.7622 13.3915 26.2271 13.8374 27.8529Z" fill="#E8FFDB"/>
</svg>
