<svg width="80" height="80" fill="none" xmlns="http://www.w3.org/2000/svg"><path fill-rule="evenodd" clip-rule="evenodd" d="M40 80c22.091 0 40-17.909 40-40S62.091 0 40 0 0 17.909 0 40s17.909 40 40 40Z" fill="#fff"/><path d="M28.9 26.403c.114-6.1 5.23-10.948 11.432-10.846 6.048.115 10.909 4.926 11.024 10.846v7.081a10.858 10.858 0 0 1-.485 2.629 9.63 9.63 0 0 1-.97 2.233 7.473 7.473 0 0 1-2.896 2.704c-1.595.843-3.713 1.315-6.24 1.315h-5.269c-.191 0-.485-.039-.931-.039h-.154c-1.862 0-3.725.255-5.524.74l.012-16.663Z" fill="url(#a)"/><path d="M51.382 52.662c-.115 6.099-5.231 10.947-11.432 10.845-6.048-.115-10.91-4.887-11.024-10.845v-4.747c.115-.153.255-.293.408-.408.332-.23.676-.421 1.046-.587a12.414 12.414 0 0 1 2.259-.549 9.524 9.524 0 0 1 1.965-.102h6.264c3.343 0 6.303-.587 8.83-1.76a16.83 16.83 0 0 0 1.71-.906l-.026 9.059Z" fill="#42A4E1"/><g clip-path="url(#b)"><path d="m61.482 20-1.807-2.067.252-2.733-2.674-.607-1.4-2.37-2.519 1.08-2.518-1.08-1.4 2.362-2.674.6.251 2.741L45.186 20l1.807 2.067-.251 2.74 2.674.608 1.4 2.363 2.518-1.089 2.519 1.082 1.4-2.363 2.674-.608-.252-2.733L61.482 20Zm-9.563 3.497-2.814-2.823 1.096-1.096 1.718 1.726 4.334-4.348 1.096 1.096-5.43 5.445Z" fill="#007AFF"/></g><defs><linearGradient id="a" x1="28.875" y1="43.844" x2="53.889" y2="12.39" gradientUnits="userSpaceOnUse"><stop stop-color="#3ACBC7"/><stop offset=".795" stop-color="#6ADBD8"/></linearGradient><clipPath id="b"><path fill="#fff" transform="translate(44.445 11.111)" d="M0 0h17.778v17.778H0z"/></clipPath></defs></svg>