<svg xmlns="http://www.w3.org/2000/svg" width="264" height="222" fill="none"><g clip-path="url(#a)"><g clip-path="url(#b)"><g clip-path="url(#c)"><g clip-path="url(#d)"><path d="M0 0h264v222H0V0Z" fill="#fff"/><path opacity=".4" d="M25.201 74.526h-1.103v-1.52h-2.935v-1.068l2.953-4.038H25.2v4.117h.895v.99H25.2v1.52l.001-.001Zm-3.074-2.388a2.13 2.13 0 0 1 .72-.121h1.251V70.07c0-.144.003-.263.01-.356.01-.098.037-.223.077-.373l-.104-.035c-.122.203-.246.397-.373.582l-1.112 1.572c-.15.21-.326.403-.521.573l.052.105Z" fill="#002E25"/><path d="M35.17 71.092h207.553" stroke="#F3F7F6" stroke-width=".868" stroke-linecap="round" stroke-dasharray="5.21 5.21"/><path opacity=".4" d="M23.673 99.578c-.486 0-.915-.087-1.285-.26a2.163 2.163 0 0 1-.869-.756 2.342 2.342 0 0 1-.347-1.147h1.103c.092.805.564 1.208 1.415 1.208.382 0 .68-.099.895-.296.22-.202.33-.477.33-.825 0-.364-.13-.63-.391-.799-.255-.173-.608-.26-1.06-.26h-.399v-.92h.365c.318 0 .582-.082.79-.244.214-.162.321-.396.321-.703 0-.272-.087-.486-.26-.643-.168-.156-.408-.234-.721-.234-.319 0-.576.09-.773.27-.197.18-.316.448-.356.806h-1.033c.023-.399.13-.752.32-1.059.192-.307.447-.544.765-.712a2.24 2.24 0 0 1 1.077-.26c.405 0 .761.078 1.068.234.313.15.553.362.72.634.175.266.261.57.261.912 0 .353-.1.654-.304.903a1.005 1.005 0 0 1-.799.382v.14c.464.022.828.18 1.095.468.272.29.408.66.408 1.111 0 .4-.099.756-.295 1.07a1.996 1.996 0 0 1-.834.72c-.377.178-.79.268-1.207.26Z" fill="#002E25"/><path d="M35.17 96.04h207.553" stroke="#F3F7F6" stroke-width=".868" stroke-linecap="round" stroke-dasharray="5.21 5.21"/><path opacity=".4" d="M21.302 124.421v-.868l2.093-1.807c.434-.37.756-.712.964-1.024.208-.313.313-.64.313-.982 0-.341-.09-.608-.27-.799-.18-.197-.448-.295-.807-.295-.788 0-1.207.478-1.26 1.433h-1.033c.029-.753.24-1.337.634-1.754.4-.417.955-.626 1.667-.626.411 0 .776.081 1.095.244.324.156.573.382.746.677.18.295.27.64.27 1.033a2.58 2.58 0 0 1-.452 1.459c-.33.485-.725.923-1.172 1.303l-.808.695c-.16.141-.331.269-.512.382l.052.104c.15-.064.269-.107.356-.13.087-.023.194-.035.321-.035h2.51v.99h-4.707Z" fill="#002E25"/><path d="M35.17 120.987h207.553" stroke="#F3F7F6" stroke-width=".868" stroke-linecap="round" stroke-dasharray="5.21 5.21"/><path opacity=".4" d="M23.708 144.679c0-.226.029-.437.086-.634l-.104-.043c-.121.214-.269.39-.443.529a2.944 2.944 0 0 1-.677.435c-.249.115-.48.191-.695.225v-1.024c.41-.084.795-.266 1.12-.53.33-.266.58-.565.747-.895h1.069v6.626h-1.103v-4.689Z" fill="#002E25"/><path d="M35.17 145.934h207.553" stroke="#F3F7F6" stroke-width=".868" stroke-linecap="round" stroke-dasharray="5.21 5.21"/><path opacity=".4" d="M23.647 174.42c-.764 0-1.355-.281-1.772-.842-.417-.562-.625-1.425-.625-2.588 0-1.158.203-2.015.608-2.571.41-.556.993-.833 1.745-.833.765 0 1.352.28 1.763.842.417.561.625 1.427.625 2.596 0 1.153-.205 2.007-.616 2.562-.405.556-.981.834-1.728.834Zm-.026-.99c.405 0 .718-.188.938-.564.22-.377.33-.993.33-1.85 0-.869-.113-1.494-.339-1.876-.226-.382-.544-.573-.955-.573-.406 0-.715.191-.93.573-.208.382-.312 1.002-.312 1.858 0 .869.107 1.491.321 1.868.22.376.536.564.947.564Z" fill="#002E25"/><path d="M35.17 170.882h207.553" stroke="#F3F7F6" stroke-width=".868" stroke-linecap="round" stroke-dasharray="5.21 5.21"/><path d="M222.751 62.526v114.632M194.961 62.526v114.632M167.172 62.526v114.632M139.381 62.526v114.632M111.592 62.526v114.632M83.802 62.526v114.632M56.013 62.526v114.632" stroke="#F3F7F6" stroke-width=".868"/><path d="m56.447 143.834 21.754-19.155a8.686 8.686 0 0 1 11.478 0l14.461 12.734c3.888 3.424 9.89 2.703 12.857-1.543l12.99-18.586c3.899-5.579 12.409-4.708 15.097 1.546l11.66 27.136c3.23 7.516 14.111 6.805 16.336-1.067l12.775-45.198c2.359-8.343 14.144-8.46 16.666-.164l12.279 40.387c2.369 7.791 13.193 8.33 16.325.813l11.6-27.842" stroke="#002E25" stroke-width="1.737" stroke-linecap="round"/><path d="M78.2 124.679 59.393 141.24a8.684 8.684 0 0 0-2.945 6.518v12.031a8.69 8.69 0 0 0 2.543 6.141 8.686 8.686 0 0 0 6.141 2.544h169.343a8.69 8.69 0 0 0 8.023-5.361 8.68 8.68 0 0 0 .661-3.324v-47.328l-12.001 28.464c-3.156 7.486-13.947 6.925-16.311-.848l-12.325-40.54c-2.522-8.295-14.307-8.18-16.666.164L173.08 144.9c-2.225 7.872-13.106 8.583-16.336 1.067l-11.66-27.136c-2.688-6.254-11.198-7.125-15.097-1.546l-12.99 18.586c-2.967 4.246-8.969 4.967-12.857 1.543L89.678 124.68a8.685 8.685 0 0 0-11.477 0l-.001-.001Z" fill="url(#e)" fill-opacity=".16"/><g filter="url(#f)"><path d="M139.816 118.974a5.21 5.21 0 1 0 0-10.422 5.21 5.21 0 0 0 0 10.422Z" fill="#fff"/></g><path d="M139.816 115.5a1.737 1.737 0 1 0 0-3.475 1.737 1.737 0 0 0 0 3.475Z" fill="#000"/><path d="M157.92 74.684H115.5a3.474 3.474 0 0 0-3.474 3.474v21a3.474 3.474 0 0 0 3.474 3.473h42.42a3.474 3.474 0 0 0 3.474-3.474V78.158a3.474 3.474 0 0 0-3.474-3.474ZM136.711 105.237l-2.606-2.605h5.211l-2.605 2.605Z" fill="#6ADBD8"/><path d="m232.736 33.868-3.908-3.908h7.816l-3.908 3.908Z" fill="#002E25"/></g></g></g><rect x=".5" y=".5" width="263" height="221" rx="11.5" stroke="#EBECEF"/></g><defs><clipPath id="a"><rect width="264" height="222" rx="12" fill="#fff"/></clipPath><clipPath id="b"><rect width="264" height="222" rx="12" fill="#fff"/></clipPath><clipPath id="c"><path fill="#fff" d="M0 0h264v222H0z"/></clipPath><clipPath id="d"><path fill="#fff" d="M0 0h264v222H0z"/></clipPath><linearGradient id="e" x1="139.139" y1="71.21" x2="139.139" y2="168.474" gradientUnits="userSpaceOnUse"><stop stop-color="#002E25"/><stop offset="1" stop-color="#002E25" stop-opacity=".04"/></linearGradient><filter id="f" x="131.131" y="108.552" width="17.37" height="17.37" filterUnits="userSpaceOnUse" color-interpolation-filters="sRGB"><feFlood flood-opacity="0" result="BackgroundImageFix"/><feColorMatrix in="SourceAlpha" values="0 0 0 0 0 0 0 0 0 0 0 0 0 0 0 0 0 0 127 0" result="hardAlpha"/><feOffset dy="3.474"/><feGaussianBlur stdDeviation="1.737"/><feComposite in2="hardAlpha" operator="out"/><feColorMatrix values="0 0 0 0 0 0 0 0 0 0 0 0 0 0 0 0 0 0 0.08 0"/><feBlend in2="BackgroundImageFix" result="effect1_dropShadow_397_8195"/><feBlend in="SourceGraphic" in2="effect1_dropShadow_397_8195" result="shape"/></filter></defs></svg>