
<svg xmlns="http://www.w3.org/2000/svg" width="40" height="41" fill="none"><path fill-rule="evenodd" clip-rule="evenodd" d="M20 40.63c11.046 0 20-8.954 20-20s-8.954-20-20-20-20 8.954-20 20 8.954 20 20 20Z" fill="#fff"/><path d="M14.45 13.831c.057-3.05 2.616-5.474 5.716-5.422 3.024.057 5.455 2.462 5.512 5.422v3.54a5.43 5.43 0 0 1-.242 1.315c-.115.39-.275.766-.485 1.116a3.737 3.737 0 0 1-1.448 1.353c-.798.421-1.857.657-3.12.657h-2.635c-.096 0-.242-.019-.466-.019h-.076c-.931 0-1.863.128-2.762.37l.006-8.332Z" fill="url(#a)"/><path d="M25.691 26.96c-.057 3.05-2.615 5.474-5.716 5.423-3.024-.057-5.455-2.443-5.512-5.422v-2.373c.058-.077.128-.147.204-.205.166-.114.338-.21.523-.293a6.21 6.21 0 0 1 1.13-.274 4.767 4.767 0 0 1 .982-.051h3.132c1.672 0 3.152-.294 4.415-.88.294-.135.58-.288.855-.454l-.013 4.53Z" fill="#42A4E1"/><g clip-path="url(#b)"><path d="m30.74 10.63-.903-1.033.126-1.367-1.337-.304-.7-1.185-1.26.541-1.259-.54-.7 1.18-1.337.3.126 1.371-.903 1.037.903 1.033-.126 1.37 1.337.305.7 1.181 1.26-.544 1.259.54.7-1.181 1.337-.304-.126-1.367.904-1.033Zm-4.78 1.748-1.408-1.41.548-.549.86.863 2.166-2.174.548.548-2.715 2.722Z" fill="#007AFF"/></g><defs><linearGradient id="a" x1="14.438" y1="22.552" x2="26.944" y2="6.825" gradientUnits="userSpaceOnUse"><stop stop-color="#3ACBC7"/><stop offset=".795" stop-color="#6ADBD8"/></linearGradient><clipPath id="b"><path fill="#fff" transform="translate(22.222 6.186)" d="M0 0h8.889v8.889H0z"/></clipPath></defs></svg>