<svg xmlns="http://www.w3.org/2000/svg" xml:space="preserve" width="1023" height="1023"><defs><mask id="a"><g fill="#fff"><path d="M0 0h6v6H0z" transform="matrix(5.16667 0 0 5.16667 310 62)"/><path d="M0 0h6v6H0z" transform="matrix(5.16667 0 0 5.16667 341 62)"/><path d="M0 0h6v6H0z" transform="matrix(5.16667 0 0 5.16667 403 62)"/><path d="M0 0h6v6H0z" transform="matrix(5.16667 0 0 5.16667 465 62)"/><path d="M0 0h6v6H0z" transform="matrix(5.16667 0 0 5.16667 496 62)"/><path d="M0 0h6v6H0z" transform="matrix(5.16667 0 0 5.16667 527 62)"/><path d="M0 0h6v6H0z" transform="matrix(5.16667 0 0 5.16667 589 62)"/><path d="M0 0h6v6H0z" transform="matrix(5.16667 0 0 5.16667 620 62)"/><path d="M0 0h6v6H0z" transform="matrix(5.16667 0 0 5.16667 310 93)"/><path d="M0 0h6v6H0z" transform="matrix(5.16667 0 0 5.16667 434 93)"/><path d="M0 0h6v6H0z" transform="matrix(5.16667 0 0 5.16667 465 93)"/><path d="M0 0h6v6H0z" transform="matrix(5.16667 0 0 5.16667 527 93)"/><path d="M0 0h6v6H0z" transform="matrix(5.16667 0 0 5.16667 589 93)"/><path d="M0 0h6v6H0z" transform="matrix(5.16667 0 0 5.16667 310 124)"/><path d="M0 0h6v6H0z" transform="matrix(5.16667 0 0 5.16667 341 124)"/><path d="M0 0h6v6H0z" transform="matrix(5.16667 0 0 5.16667 372 124)"/><path d="M0 0h6v6H0z" transform="matrix(5.16667 0 0 5.16667 465 124)"/><path d="M0 0h6v6H0z" transform="matrix(5.16667 0 0 5.16667 496 124)"/><path d="M0 0h6v6H0z" transform="matrix(5.16667 0 0 5.16667 558 124)"/><path d="M0 0h6v6H0z" transform="matrix(5.16667 0 0 5.16667 620 124)"/><path d="M0 0h6v6H0z" transform="matrix(5.16667 0 0 5.16667 403 155)"/><path d="M0 0h6v6H0z" transform="matrix(5.16667 0 0 5.16667 496 155)"/><path d="M0 0h6v6H0z" transform="matrix(5.16667 0 0 5.16667 527 155)"/><path d="M0 0h6v6H0z" transform="matrix(5.16667 0 0 5.16667 589 155)"/><path d="M0 0h6v6H0z" transform="matrix(5.16667 0 0 5.16667 341 186)"/><path d="M0 0h6v6H0z" transform="matrix(5.16667 0 0 5.16667 434 186)"/><path d="M0 0h6v6H0z" transform="matrix(5.16667 0 0 5.16667 465 186)"/><path d="M0 0h6v6H0z" transform="matrix(5.16667 0 0 5.16667 527 186)"/><path d="M0 0h6v6H0z" transform="matrix(5.16667 0 0 5.16667 589 186)"/><path d="M0 0h6v6H0z" transform="matrix(5.16667 0 0 5.16667 620 186)"/><path d="M0 0h6v6H0z" transform="matrix(5.16667 0 0 5.16667 651 186)"/><path d="M0 0h6v6H0z" transform="matrix(5.16667 0 0 5.16667 310 217)"/><path d="M0 0h6v6H0z" transform="matrix(5.16667 0 0 5.16667 372 217)"/><path d="M0 0h6v6H0z" transform="matrix(5.16667 0 0 5.16667 403 217)"/><path d="M0 0h6v6H0z" transform="matrix(5.16667 0 0 5.16667 465 217)"/><path d="M0 0h6v6H0z" transform="matrix(5.16667 0 0 5.16667 496 217)"/><path d="M0 0h6v6H0z" transform="matrix(5.16667 0 0 5.16667 558 217)"/><path d="M0 0h6v6H0z" transform="matrix(5.16667 0 0 5.16667 589 217)"/><path d="M0 0h6v6H0z" transform="matrix(5.16667 0 0 5.16667 682 217)"/><path d="M0 0h6v6H0z" transform="matrix(5.16667 0 0 5.16667 310 248)"/><path d="M0 0h6v6H0z" transform="matrix(5.16667 0 0 5.16667 372 248)"/><path d="M0 0h6v6H0z" transform="matrix(5.16667 0 0 5.16667 434 248)"/><path d="M0 0h6v6H0z" transform="matrix(5.16667 0 0 5.16667 496 248)"/><path d="M0 0h6v6H0z" transform="matrix(5.16667 0 0 5.16667 558 248)"/><path d="M0 0h6v6H0z" transform="matrix(5.16667 0 0 5.16667 620 248)"/><path d="M0 0h6v6H0z" transform="matrix(5.16667 0 0 5.16667 682 248)"/><path d="M0 0h6v6H0z" transform="matrix(5.16667 0 0 5.16667 310 279)"/><path d="M0 0h6v6H0z" transform="matrix(5.16667 0 0 5.16667 341 279)"/><path d="M0 0h6v6H0z" transform="matrix(5.16667 0 0 5.16667 403 279)"/><path d="M0 0h6v6H0z" transform="matrix(5.16667 0 0 5.16667 434 279)"/><path d="M0 0h6v6H0z" transform="matrix(5.16667 0 0 5.16667 465 279)"/><path d="M0 0h6v6H0z" transform="matrix(5.16667 0 0 5.16667 496 279)"/><path d="M0 0h6v6H0z" transform="matrix(5.16667 0 0 5.16667 527 279)"/><path d="M0 0h6v6H0z" transform="matrix(5.16667 0 0 5.16667 558 279)"/><path d="M0 0h6v6H0z" transform="matrix(5.16667 0 0 5.16667 589 279)"/><path d="M0 0h6v6H0z" transform="matrix(5.16667 0 0 5.16667 620 279)"/><path d="M0 0h6v6H0z" transform="matrix(5.16667 0 0 5.16667 124 310)"/><path d="M0 0h6v6H0z" transform="matrix(5.16667 0 0 5.16667 155 310)"/><path d="M0 0h6v6H0z" transform="matrix(5.16667 0 0 5.16667 186 310)"/><path d="M0 0h6v6H0z" transform="matrix(5.16667 0 0 5.16667 248 310)"/><path d="M0 0h6v6H0z" transform="matrix(5.16667 0 0 5.16667 310 310)"/><path d="M0 0h6v6H0z" transform="matrix(5.16667 0 0 5.16667 403 310)"/><path d="M0 0h6v6H0z" transform="matrix(5.16667 0 0 5.16667 434 310)"/><path d="M0 0h6v6H0z" transform="matrix(5.16667 0 0 5.16667 465 310)"/><path d="M0 0h6v6H0z" transform="matrix(5.16667 0 0 5.16667 527 310)"/><path d="M0 0h6v6H0z" transform="matrix(5.16667 0 0 5.16667 558 310)"/><path d="M0 0h6v6H0z" transform="matrix(5.16667 0 0 5.16667 682 310)"/><path d="M0 0h6v6H0z" transform="matrix(5.16667 0 0 5.16667 713 310)"/><path d="M0 0h6v6H0z" transform="matrix(5.16667 0 0 5.16667 744 310)"/><path d="M0 0h6v6H0z" transform="matrix(5.16667 0 0 5.16667 775 310)"/><path d="M0 0h6v6H0z" transform="matrix(5.16667 0 0 5.16667 868 310)"/><path d="M0 0h6v6H0z" transform="matrix(5.16667 0 0 5.16667 899 310)"/><path d="M0 0h6v6H0z" transform="matrix(5.16667 0 0 5.16667 930 310)"/><path d="M0 0h6v6H0z" transform="matrix(5.16667 0 0 5.16667 93 341)"/><path d="M0 0h6v6H0z" transform="matrix(5.16667 0 0 5.16667 124 341)"/><path d="M0 0h6v6H0z" transform="matrix(5.16667 0 0 5.16667 279 341)"/><path d="M0 0h6v6H0z" transform="matrix(5.16667 0 0 5.16667 496 341)"/><path d="M0 0h6v6H0z" transform="matrix(5.16667 0 0 5.16667 620 341)"/><path d="M0 0h6v6H0z" transform="matrix(5.16667 0 0 5.16667 713 341)"/><path d="M0 0h6v6H0z" transform="matrix(5.16667 0 0 5.16667 744 341)"/><path d="M0 0h6v6H0z" transform="matrix(5.16667 0 0 5.16667 775 341)"/><path d="M0 0h6v6H0z" transform="matrix(5.16667 0 0 5.16667 930 341)"/><path d="M0 0h6v6H0z" transform="matrix(5.16667 0 0 5.16667 155 372)"/><path d="M0 0h6v6H0z" transform="matrix(5.16667 0 0 5.16667 186 372)"/><path d="M0 0h6v6H0z" transform="matrix(5.16667 0 0 5.16667 248 372)"/><path d="M0 0h6v6H0z" transform="matrix(5.16667 0 0 5.16667 279 372)"/><path d="M0 0h6v6H0z" transform="matrix(5.16667 0 0 5.16667 310 372)"/><path d="M0 0h6v6H0z" transform="matrix(5.16667 0 0 5.16667 341 372)"/><path d="M0 0h6v6H0z" transform="matrix(5.16667 0 0 5.16667 434 372)"/><path d="M0 0h6v6H0z" transform="matrix(5.16667 0 0 5.16667 465 372)"/><path d="M0 0h6v6H0z" transform="matrix(5.16667 0 0 5.16667 496 372)"/><path d="M0 0h6v6H0z" transform="matrix(5.16667 0 0 5.16667 527 372)"/><path d="M0 0h6v6H0z" transform="matrix(5.16667 0 0 5.16667 620 372)"/><path d="M0 0h6v6H0z" transform="matrix(5.16667 0 0 5.16667 713 372)"/><path d="M0 0h6v6H0z" transform="matrix(5.16667 0 0 5.16667 744 372)"/><path d="M0 0h6v6H0z" transform="matrix(5.16667 0 0 5.16667 806 372)"/><path d="M0 0h6v6H0z" transform="matrix(5.16667 0 0 5.16667 93 403)"/><path d="M0 0h6v6H0z" transform="matrix(5.16667 0 0 5.16667 155 403)"/><path d="M0 0h6v6H0z" transform="matrix(5.16667 0 0 5.16667 217 403)"/><path d="M0 0h6v6H0z" transform="matrix(5.16667 0 0 5.16667 279 403)"/><path d="M0 0h6v6H0z" transform="matrix(5.16667 0 0 5.16667 341 403)"/><path d="M0 0h6v6H0z" transform="matrix(5.16667 0 0 5.16667 403 403)"/><path d="M0 0h6v6H0z" transform="matrix(5.16667 0 0 5.16667 434 403)"/><path d="M0 0h6v6H0z" transform="matrix(5.16667 0 0 5.16667 465 403)"/><path d="M0 0h6v6H0z" transform="matrix(5.16667 0 0 5.16667 527 403)"/><path d="M0 0h6v6H0z" transform="matrix(5.16667 0 0 5.16667 558 403)"/><path d="M0 0h6v6H0z" transform="matrix(5.16667 0 0 5.16667 589 403)"/><path d="M0 0h6v6H0z" transform="matrix(5.16667 0 0 5.16667 651 403)"/><path d="M0 0h6v6H0z" transform="matrix(5.16667 0 0 5.16667 682 403)"/><path d="M0 0h6v6H0z" transform="matrix(5.16667 0 0 5.16667 713 403)"/><path d="M0 0h6v6H0z" transform="matrix(5.16667 0 0 5.16667 744 403)"/><path d="M0 0h6v6H0z" transform="matrix(5.16667 0 0 5.16667 775 403)"/><path d="M0 0h6v6H0z" transform="matrix(5.16667 0 0 5.16667 806 403)"/><path d="M0 0h6v6H0z" transform="matrix(5.16667 0 0 5.16667 899 403)"/><path d="M0 0h6v6H0z" transform="matrix(5.16667 0 0 5.16667 186 434)"/><path d="M0 0h6v6H0z" transform="matrix(5.16667 0 0 5.16667 217 434)"/><path d="M0 0h6v6H0z" transform="matrix(5.16667 0 0 5.16667 248 434)"/><path d="M0 0h6v6H0z" transform="matrix(5.16667 0 0 5.16667 310 434)"/><path d="M0 0h6v6H0z" transform="matrix(5.16667 0 0 5.16667 372 434)"/><path d="M0 0h6v6H0z" transform="matrix(5.16667 0 0 5.16667 403 434)"/><path d="M0 0h6v6H0z" transform="matrix(5.16667 0 0 5.16667 465 434)"/><path d="M0 0h6v6H0z" transform="matrix(5.16667 0 0 5.16667 527 434)"/><path d="M0 0h6v6H0z" transform="matrix(5.16667 0 0 5.16667 558 434)"/><path d="M0 0h6v6H0z" transform="matrix(5.16667 0 0 5.16667 589 434)"/><path d="M0 0h6v6H0z" transform="matrix(5.16667 0 0 5.16667 620 434)"/><path d="M0 0h6v6H0z" transform="matrix(5.16667 0 0 5.16667 713 434)"/><path d="M0 0h6v6H0z" transform="matrix(5.16667 0 0 5.16667 775 434)"/><path d="M0 0h6v6H0z" transform="matrix(5.16667 0 0 5.16667 899 434)"/><path d="M0 0h6v6H0z" transform="matrix(5.16667 0 0 5.16667 930 434)"/><path d="M0 0h6v6H0z" transform="matrix(5.16667 0 0 5.16667 62 465)"/><path d="M0 0h6v6H0z" transform="matrix(5.16667 0 0 5.16667 124 465)"/><path d="M0 0h6v6H0z" transform="matrix(5.16667 0 0 5.16667 155 465)"/><path d="M0 0h6v6H0z" transform="matrix(5.16667 0 0 5.16667 279 465)"/><path d="M0 0h6v6H0z" transform="matrix(5.16667 0 0 5.16667 310 465)"/><path d="M0 0h6v6H0z" transform="matrix(5.16667 0 0 5.16667 403 465)"/><path d="M0 0h6v6H0z" transform="matrix(5.16667 0 0 5.16667 465 465)"/><path d="M0 0h6v6H0z" transform="matrix(5.16667 0 0 5.16667 527 465)"/><path d="M0 0h6v6H0z" transform="matrix(5.16667 0 0 5.16667 558 465)"/><path d="M0 0h6v6H0z" transform="matrix(5.16667 0 0 5.16667 620 465)"/><path d="M0 0h6v6H0z" transform="matrix(5.16667 0 0 5.16667 651 465)"/><path d="M0 0h6v6H0z" transform="matrix(5.16667 0 0 5.16667 682 465)"/><path d="M0 0h6v6H0z" transform="matrix(5.16667 0 0 5.16667 713 465)"/><path d="M0 0h6v6H0z" transform="matrix(5.16667 0 0 5.16667 744 465)"/><path d="M0 0h6v6H0z" transform="matrix(5.16667 0 0 5.16667 806 465)"/><path d="M0 0h6v6H0z" transform="matrix(5.16667 0 0 5.16667 837 465)"/><path d="M0 0h6v6H0z" transform="matrix(5.16667 0 0 5.16667 899 465)"/><path d="M0 0h6v6H0z" transform="matrix(5.16667 0 0 5.16667 930 465)"/><path d="M0 0h6v6H0z" transform="matrix(5.16667 0 0 5.16667 93 496)"/><path d="M0 0h6v6H0z" transform="matrix(5.16667 0 0 5.16667 186 496)"/><path d="M0 0h6v6H0z" transform="matrix(5.16667 0 0 5.16667 248 496)"/><path d="M0 0h6v6H0z" transform="matrix(5.16667 0 0 5.16667 279 496)"/><path d="M0 0h6v6H0z" transform="matrix(5.16667 0 0 5.16667 310 496)"/><path d="M0 0h6v6H0z" transform="matrix(5.16667 0 0 5.16667 341 496)"/><path d="M0 0h6v6H0z" transform="matrix(5.16667 0 0 5.16667 403 496)"/><path d="M0 0h6v6H0z" transform="matrix(5.16667 0 0 5.16667 434 496)"/><path d="M0 0h6v6H0z" transform="matrix(5.16667 0 0 5.16667 558 496)"/><path d="M0 0h6v6H0z" transform="matrix(5.16667 0 0 5.16667 589 496)"/><path d="M0 0h6v6H0z" transform="matrix(5.16667 0 0 5.16667 682 496)"/><path d="M0 0h6v6H0z" transform="matrix(5.16667 0 0 5.16667 775 496)"/><path d="M0 0h6v6H0z" transform="matrix(5.16667 0 0 5.16667 899 496)"/><path d="M0 0h6v6H0z" transform="matrix(5.16667 0 0 5.16667 155 527)"/><path d="M0 0h6v6H0z" transform="matrix(5.16667 0 0 5.16667 186 527)"/><path d="M0 0h6v6H0z" transform="matrix(5.16667 0 0 5.16667 217 527)"/><path d="M0 0h6v6H0z" transform="matrix(5.16667 0 0 5.16667 372 527)"/><path d="M0 0h6v6H0z" transform="matrix(5.16667 0 0 5.16667 403 527)"/><path d="M0 0h6v6H0z" transform="matrix(5.16667 0 0 5.16667 434 527)"/><path d="M0 0h6v6H0z" transform="matrix(5.16667 0 0 5.16667 465 527)"/><path d="M0 0h6v6H0z" transform="matrix(5.16667 0 0 5.16667 496 527)"/><path d="M0 0h6v6H0z" transform="matrix(5.16667 0 0 5.16667 558 527)"/><path d="M0 0h6v6H0z" transform="matrix(5.16667 0 0 5.16667 589 527)"/><path d="M0 0h6v6H0z" transform="matrix(5.16667 0 0 5.16667 620 527)"/><path d="M0 0h6v6H0z" transform="matrix(5.16667 0 0 5.16667 651 527)"/><path d="M0 0h6v6H0z" transform="matrix(5.16667 0 0 5.16667 682 527)"/><path d="M0 0h6v6H0z" transform="matrix(5.16667 0 0 5.16667 806 527)"/><path d="M0 0h6v6H0z" transform="matrix(5.16667 0 0 5.16667 837 527)"/><path d="M0 0h6v6H0z" transform="matrix(5.16667 0 0 5.16667 62 558)"/><path d="M0 0h6v6H0z" transform="matrix(5.16667 0 0 5.16667 124 558)"/><path d="M0 0h6v6H0z" transform="matrix(5.16667 0 0 5.16667 155 558)"/><path d="M0 0h6v6H0z" transform="matrix(5.16667 0 0 5.16667 186 558)"/><path d="M0 0h6v6H0z" transform="matrix(5.16667 0 0 5.16667 217 558)"/><path d="M0 0h6v6H0z" transform="matrix(5.16667 0 0 5.16667 248 558)"/><path d="M0 0h6v6H0z" transform="matrix(5.16667 0 0 5.16667 279 558)"/><path d="M0 0h6v6H0z" transform="matrix(5.16667 0 0 5.16667 310 558)"/><path d="M0 0h6v6H0z" transform="matrix(5.16667 0 0 5.16667 341 558)"/><path d="M0 0h6v6H0z" transform="matrix(5.16667 0 0 5.16667 372 558)"/><path d="M0 0h6v6H0z" transform="matrix(5.16667 0 0 5.16667 434 558)"/><path d="M0 0h6v6H0z" transform="matrix(5.16667 0 0 5.16667 527 558)"/><path d="M0 0h6v6H0z" transform="matrix(5.16667 0 0 5.16667 558 558)"/><path d="M0 0h6v6H0z" transform="matrix(5.16667 0 0 5.16667 682 558)"/><path d="M0 0h6v6H0z" transform="matrix(5.16667 0 0 5.16667 744 558)"/><path d="M0 0h6v6H0z" transform="matrix(5.16667 0 0 5.16667 806 558)"/><path d="M0 0h6v6H0z" transform="matrix(5.16667 0 0 5.16667 837 558)"/><path d="M0 0h6v6H0z" transform="matrix(5.16667 0 0 5.16667 868 558)"/><path d="M0 0h6v6H0z" transform="matrix(5.16667 0 0 5.16667 62 589)"/><path d="M0 0h6v6H0z" transform="matrix(5.16667 0 0 5.16667 93 589)"/><path d="M0 0h6v6H0z" transform="matrix(5.16667 0 0 5.16667 124 589)"/><path d="M0 0h6v6H0z" transform="matrix(5.16667 0 0 5.16667 155 589)"/><path d="M0 0h6v6H0z" transform="matrix(5.16667 0 0 5.16667 186 589)"/><path d="M0 0h6v6H0z" transform="matrix(5.16667 0 0 5.16667 310 589)"/><path d="M0 0h6v6H0z" transform="matrix(5.16667 0 0 5.16667 341 589)"/><path d="M0 0h6v6H0z" transform="matrix(5.16667 0 0 5.16667 372 589)"/><path d="M0 0h6v6H0z" transform="matrix(5.16667 0 0 5.16667 620 589)"/><path d="M0 0h6v6H0z" transform="matrix(5.16667 0 0 5.16667 682 589)"/><path d="M0 0h6v6H0z" transform="matrix(5.16667 0 0 5.16667 744 589)"/><path d="M0 0h6v6H0z" transform="matrix(5.16667 0 0 5.16667 775 589)"/><path d="M0 0h6v6H0z" transform="matrix(5.16667 0 0 5.16667 837 589)"/><path d="M0 0h6v6H0z" transform="matrix(5.16667 0 0 5.16667 868 589)"/><path d="M0 0h6v6H0z" transform="matrix(5.16667 0 0 5.16667 899 589)"/><path d="M0 0h6v6H0z" transform="matrix(5.16667 0 0 5.16667 930 589)"/><path d="M0 0h6v6H0z" transform="matrix(5.16667 0 0 5.16667 62 620)"/><path d="M0 0h6v6H0z" transform="matrix(5.16667 0 0 5.16667 217 620)"/><path d="M0 0h6v6H0z" transform="matrix(5.16667 0 0 5.16667 248 620)"/><path d="M0 0h6v6H0z" transform="matrix(5.16667 0 0 5.16667 310 620)"/><path d="M0 0h6v6H0z" transform="matrix(5.16667 0 0 5.16667 341 620)"/><path d="M0 0h6v6H0z" transform="matrix(5.16667 0 0 5.16667 372 620)"/><path d="M0 0h6v6H0z" transform="matrix(5.16667 0 0 5.16667 403 620)"/><path d="M0 0h6v6H0z" transform="matrix(5.16667 0 0 5.16667 434 620)"/><path d="M0 0h6v6H0z" transform="matrix(5.16667 0 0 5.16667 527 620)"/><path d="M0 0h6v6H0z" transform="matrix(5.16667 0 0 5.16667 620 620)"/><path d="M0 0h6v6H0z" transform="matrix(5.16667 0 0 5.16667 682 620)"/><path d="M0 0h6v6H0z" transform="matrix(5.16667 0 0 5.16667 744 620)"/><path d="M0 0h6v6H0z" transform="matrix(5.16667 0 0 5.16667 837 620)"/><path d="M0 0h6v6H0z" transform="matrix(5.16667 0 0 5.16667 62 651)"/><path d="M0 0h6v6H0z" transform="matrix(5.16667 0 0 5.16667 124 651)"/><path d="M0 0h6v6H0z" transform="matrix(5.16667 0 0 5.16667 155 651)"/><path d="M0 0h6v6H0z" transform="matrix(5.16667 0 0 5.16667 186 651)"/><path d="M0 0h6v6H0z" transform="matrix(5.16667 0 0 5.16667 279 651)"/><path d="M0 0h6v6H0z" transform="matrix(5.16667 0 0 5.16667 310 651)"/><path d="M0 0h6v6H0z" transform="matrix(5.16667 0 0 5.16667 341 651)"/><path d="M0 0h6v6H0z" transform="matrix(5.16667 0 0 5.16667 372 651)"/><path d="M0 0h6v6H0z" transform="matrix(5.16667 0 0 5.16667 403 651)"/><path d="M0 0h6v6H0z" transform="matrix(5.16667 0 0 5.16667 558 651)"/><path d="M0 0h6v6H0z" transform="matrix(5.16667 0 0 5.16667 620 651)"/><path d="M0 0h6v6H0z" transform="matrix(5.16667 0 0 5.16667 682 651)"/><path d="M0 0h6v6H0z" transform="matrix(5.16667 0 0 5.16667 744 651)"/><path d="M0 0h6v6H0z" transform="matrix(5.16667 0 0 5.16667 775 651)"/><path d="M0 0h6v6H0z" transform="matrix(5.16667 0 0 5.16667 806 651)"/><path d="M0 0h6v6H0z" transform="matrix(5.16667 0 0 5.16667 837 651)"/><path d="M0 0h6v6H0z" transform="matrix(5.16667 0 0 5.16667 62 682)"/><path d="M0 0h6v6H0z" transform="matrix(5.16667 0 0 5.16667 124 682)"/><path d="M0 0h6v6H0z" transform="matrix(5.16667 0 0 5.16667 155 682)"/><path d="M0 0h6v6H0z" transform="matrix(5.16667 0 0 5.16667 217 682)"/><path d="M0 0h6v6H0z" transform="matrix(5.16667 0 0 5.16667 248 682)"/><path d="M0 0h6v6H0z" transform="matrix(5.16667 0 0 5.16667 279 682)"/><path d="M0 0h6v6H0z" transform="matrix(5.16667 0 0 5.16667 310 682)"/><path d="M0 0h6v6H0z" transform="matrix(5.16667 0 0 5.16667 372 682)"/><path d="M0 0h6v6H0z" transform="matrix(5.16667 0 0 5.16667 403 682)"/><path d="M0 0h6v6H0z" transform="matrix(5.16667 0 0 5.16667 434 682)"/><path d="M0 0h6v6H0z" transform="matrix(5.16667 0 0 5.16667 620 682)"/><path d="M0 0h6v6H0z" transform="matrix(5.16667 0 0 5.16667 651 682)"/><path d="M0 0h6v6H0z" transform="matrix(5.16667 0 0 5.16667 682 682)"/><path d="M0 0h6v6H0z" transform="matrix(5.16667 0 0 5.16667 713 682)"/><path d="M0 0h6v6H0z" transform="matrix(5.16667 0 0 5.16667 744 682)"/><path d="M0 0h6v6H0z" transform="matrix(5.16667 0 0 5.16667 775 682)"/><path d="M0 0h6v6H0z" transform="matrix(5.16667 0 0 5.16667 806 682)"/><path d="M0 0h6v6H0z" transform="matrix(5.16667 0 0 5.16667 868 682)"/><path d="M0 0h6v6H0z" transform="matrix(5.16667 0 0 5.16667 930 682)"/><path d="M0 0h6v6H0z" transform="matrix(5.16667 0 0 5.16667 310 713)"/><path d="M0 0h6v6H0z" transform="matrix(5.16667 0 0 5.16667 372 713)"/><path d="M0 0h6v6H0z" transform="matrix(5.16667 0 0 5.16667 403 713)"/><path d="M0 0h6v6H0z" transform="matrix(5.16667 0 0 5.16667 434 713)"/><path d="M0 0h6v6H0z" transform="matrix(5.16667 0 0 5.16667 465 713)"/><path d="M0 0h6v6H0z" transform="matrix(5.16667 0 0 5.16667 496 713)"/><path d="M0 0h6v6H0z" transform="matrix(5.16667 0 0 5.16667 620 713)"/><path d="M0 0h6v6H0z" transform="matrix(5.16667 0 0 5.16667 651 713)"/><path d="M0 0h6v6H0z" transform="matrix(5.16667 0 0 5.16667 682 713)"/><path d="M0 0h6v6H0z" transform="matrix(5.16667 0 0 5.16667 806 713)"/><path d="M0 0h6v6H0z" transform="matrix(5.16667 0 0 5.16667 837 713)"/><path d="M0 0h6v6H0z" transform="matrix(5.16667 0 0 5.16667 899 713)"/><path d="M0 0h6v6H0z" transform="matrix(5.16667 0 0 5.16667 930 713)"/><path d="M0 0h6v6H0z" transform="matrix(5.16667 0 0 5.16667 341 744)"/><path d="M0 0h6v6H0z" transform="matrix(5.16667 0 0 5.16667 434 744)"/><path d="M0 0h6v6H0z" transform="matrix(5.16667 0 0 5.16667 465 744)"/><path d="M0 0h6v6H0z" transform="matrix(5.16667 0 0 5.16667 651 744)"/><path d="M0 0h6v6H0z" transform="matrix(5.16667 0 0 5.16667 682 744)"/><path d="M0 0h6v6H0z" transform="matrix(5.16667 0 0 5.16667 744 744)"/><path d="M0 0h6v6H0z" transform="matrix(5.16667 0 0 5.16667 806 744)"/><path d="M0 0h6v6H0z" transform="matrix(5.16667 0 0 5.16667 403 775)"/><path d="M0 0h6v6H0z" transform="matrix(5.16667 0 0 5.16667 465 775)"/><path d="M0 0h6v6H0z" transform="matrix(5.16667 0 0 5.16667 620 775)"/><path d="M0 0h6v6H0z" transform="matrix(5.16667 0 0 5.16667 651 775)"/><path d="M0 0h6v6H0z" transform="matrix(5.16667 0 0 5.16667 682 775)"/><path d="M0 0h6v6H0z" transform="matrix(5.16667 0 0 5.16667 806 775)"/><path d="M0 0h6v6H0z" transform="matrix(5.16667 0 0 5.16667 837 775)"/><path d="M0 0h6v6H0z" transform="matrix(5.16667 0 0 5.16667 310 806)"/><path d="M0 0h6v6H0z" transform="matrix(5.16667 0 0 5.16667 465 806)"/><path d="M0 0h6v6H0z" transform="matrix(5.16667 0 0 5.16667 496 806)"/><path d="M0 0h6v6H0z" transform="matrix(5.16667 0 0 5.16667 527 806)"/><path d="M0 0h6v6H0z" transform="matrix(5.16667 0 0 5.16667 558 806)"/><path d="M0 0h6v6H0z" transform="matrix(5.16667 0 0 5.16667 589 806)"/><path d="M0 0h6v6H0z" transform="matrix(5.16667 0 0 5.16667 620 806)"/><path d="M0 0h6v6H0z" transform="matrix(5.16667 0 0 5.16667 682 806)"/><path d="M0 0h6v6H0z" transform="matrix(5.16667 0 0 5.16667 713 806)"/><path d="M0 0h6v6H0z" transform="matrix(5.16667 0 0 5.16667 744 806)"/><path d="M0 0h6v6H0z" transform="matrix(5.16667 0 0 5.16667 775 806)"/><path d="M0 0h6v6H0z" transform="matrix(5.16667 0 0 5.16667 806 806)"/><path d="M0 0h6v6H0z" transform="matrix(5.16667 0 0 5.16667 837 806)"/><path d="M0 0h6v6H0z" transform="matrix(5.16667 0 0 5.16667 868 806)"/><path d="M0 0h6v6H0z" transform="matrix(5.16667 0 0 5.16667 930 806)"/><path d="M0 0h6v6H0z" transform="matrix(5.16667 0 0 5.16667 310 837)"/><path d="M0 0h6v6H0z" transform="matrix(5.16667 0 0 5.16667 341 837)"/><path d="M0 0h6v6H0z" transform="matrix(5.16667 0 0 5.16667 372 837)"/><path d="M0 0h6v6H0z" transform="matrix(5.16667 0 0 5.16667 403 837)"/><path d="M0 0h6v6H0z" transform="matrix(5.16667 0 0 5.16667 465 837)"/><path d="M0 0h6v6H0z" transform="matrix(5.16667 0 0 5.16667 558 837)"/><path d="M0 0h6v6H0z" transform="matrix(5.16667 0 0 5.16667 651 837)"/><path d="M0 0h6v6H0z" transform="matrix(5.16667 0 0 5.16667 682 837)"/><path d="M0 0h6v6H0z" transform="matrix(5.16667 0 0 5.16667 713 837)"/><path d="M0 0h6v6H0z" transform="matrix(5.16667 0 0 5.16667 775 837)"/><path d="M0 0h6v6H0z" transform="matrix(5.16667 0 0 5.16667 899 837)"/><path d="M0 0h6v6H0z" transform="matrix(5.16667 0 0 5.16667 310 868)"/><path d="M0 0h6v6H0z" transform="matrix(5.16667 0 0 5.16667 341 868)"/><path d="M0 0h6v6H0z" transform="matrix(5.16667 0 0 5.16667 403 868)"/><path d="M0 0h6v6H0z" transform="matrix(5.16667 0 0 5.16667 465 868)"/><path d="M0 0h6v6H0z" transform="matrix(5.16667 0 0 5.16667 527 868)"/><path d="M0 0h6v6H0z" transform="matrix(5.16667 0 0 5.16667 558 868)"/><path d="M0 0h6v6H0z" transform="matrix(5.16667 0 0 5.16667 589 868)"/><path d="M0 0h6v6H0z" transform="matrix(5.16667 0 0 5.16667 620 868)"/><path d="M0 0h6v6H0z" transform="matrix(5.16667 0 0 5.16667 651 868)"/><path d="M0 0h6v6H0z" transform="matrix(5.16667 0 0 5.16667 682 868)"/><path d="M0 0h6v6H0z" transform="matrix(5.16667 0 0 5.16667 713 868)"/><path d="M0 0h6v6H0z" transform="matrix(5.16667 0 0 5.16667 744 868)"/><path d="M0 0h6v6H0z" transform="matrix(5.16667 0 0 5.16667 775 868)"/><path d="M0 0h6v6H0z" transform="matrix(5.16667 0 0 5.16667 806 868)"/><path d="M0 0h6v6H0z" transform="matrix(5.16667 0 0 5.16667 868 868)"/><path d="M0 0h6v6H0z" transform="matrix(5.16667 0 0 5.16667 899 868)"/><path d="M0 0h6v6H0z" transform="matrix(5.16667 0 0 5.16667 341 899)"/><path d="M0 0h6v6H0z" transform="matrix(5.16667 0 0 5.16667 403 899)"/><path d="M0 0h6v6H0z" transform="matrix(5.16667 0 0 5.16667 589 899)"/><path d="M0 0h6v6H0z" transform="matrix(5.16667 0 0 5.16667 651 899)"/><path d="M0 0h6v6H0z" transform="matrix(5.16667 0 0 5.16667 682 899)"/><path d="M0 0h6v6H0z" transform="matrix(5.16667 0 0 5.16667 744 899)"/><path d="M0 0h6v6H0z" transform="matrix(5.16667 0 0 5.16667 806 899)"/><path d="M0 0h6v6H0z" transform="matrix(5.16667 0 0 5.16667 899 899)"/><path d="M0 0h6v6H0z" transform="matrix(5.16667 0 0 5.16667 372 930)"/><path d="M0 0h6v6H0z" transform="matrix(5.16667 0 0 5.16667 434 930)"/><path d="M0 0h6v6H0z" transform="matrix(5.16667 0 0 5.16667 496 930)"/><path d="M0 0h6v6H0z" transform="matrix(5.16667 0 0 5.16667 527 930)"/><path d="M0 0h6v6H0z" transform="matrix(5.16667 0 0 5.16667 589 930)"/><path d="M0 0h6v6H0z" transform="matrix(5.16667 0 0 5.16667 620 930)"/><path d="M0 0h6v6H0z" transform="matrix(5.16667 0 0 5.16667 682 930)"/><path d="M0 0h6v6H0z" transform="matrix(5.16667 0 0 5.16667 713 930)"/><path d="M0 0h6v6H0z" transform="matrix(5.16667 0 0 5.16667 744 930)"/><path d="M0 0h6v6H0z" transform="matrix(5.16667 0 0 5.16667 806 930)"/></g></mask></defs><path fill="#fff" d="M0 0h1023v1023H0z"/><path mask="url(#a)" d="M0 0h1023v1023H0z"/><path d="M62 62v217h217V62H62zm186 186H93V93h155v155zM744 62v217h217V62H744zm186 186H775V93h155v155zM62 744v217h217V744H62zm186 186H93V775h155v155z"/><path d="M124 124h93v93h-93zM806 124h93v93h-93zM124 806h93v93h-93z"/></svg>