<svg xmlns="http://www.w3.org/2000/svg" width="16" height="16" viewBox="0 0 16 16" fill="none">
<path d="M12.0005 9.33301C12.2874 10.669 13.3305 11.713 14.6665 12C13.3305 12.287 12.2874 13.331 12.0005 14.667C11.7136 13.331 10.6695 12.2869 9.3335 12C10.6695 11.7131 11.7136 10.669 12.0005 9.33301ZM6.04834 1.4668C6.65603 4.29641 8.86622 6.5065 11.6958 7.11426C8.86609 7.72198 6.656 9.93296 6.04834 12.7627C5.44067 9.93288 3.22971 7.72192 0.399902 7.11426C3.22969 6.5066 5.44065 4.29658 6.04834 1.4668ZM12.6665 1.33301C12.8817 2.33498 13.6646 3.11775 14.6665 3.33301C13.6646 3.54821 12.8818 4.33112 12.6665 5.33301C12.4512 4.33112 11.6684 3.54816 10.6665 3.33301C11.6686 3.11783 12.4513 2.33507 12.6665 1.33301Z" fill="#007AFF"/>
</svg>