<svg width="117" height="77" fill="none" xmlns="http://www.w3.org/2000/svg"><path d="M17.102 28a1.87 1.87 0 0 1 1.344.567 1.941 1.941 0 0 1 .557 1.37V74.52c0 .514-.2 1.007-.557 1.37-.356.364-.84.568-1.344.568-.503 0-.987-.204-1.343-.567a1.96 1.96 0 0 1-.557-1.371V29.937a1.973 1.973 0 0 1 .557-1.37A1.87 1.87 0 0 1 17.103 28Zm-7.601 8.741a1.878 1.878 0 0 1 1.345.565 1.955 1.955 0 0 1 .556 1.364v27.116c0 .512-.2 1.003-.557 1.364-.357.362-.84.566-1.344.566-.504 0-.987-.204-1.343-.566a1.945 1.945 0 0 1-.556-1.364V38.67a1.955 1.955 0 0 1 .555-1.364 1.9 1.9 0 0 1 1.344-.565Zm15.203 0a1.878 1.878 0 0 1 1.344.565 1.933 1.933 0 0 1 .557 1.364v27.116c0 .512-.2 1.003-.557 1.364-.356.362-.84.566-1.344.566-.504 0-.987-.204-1.344-.566a1.944 1.944 0 0 1-.556-1.364V38.67a1.957 1.957 0 0 1 .556-1.364 1.897 1.897 0 0 1 1.344-.565Zm15.202 0a1.878 1.878 0 0 1 1.344.565 1.932 1.932 0 0 1 .557 1.364v27.116c0 .512-.2 1.003-.557 1.364-.356.362-.84.566-1.344.566-.504 0-.987-.204-1.343-.566a1.945 1.945 0 0 1-.557-1.364V38.67a1.953 1.953 0 0 1 .556-1.364 1.898 1.898 0 0 1 1.344-.565ZM1.9 44.152a1.881 1.881 0 0 1 1.344.564 1.929 1.929 0 0 1 .557 1.361V58.38a1.95 1.95 0 0 1-.557 1.361 1.904 1.904 0 0 1-1.344.565 1.88 1.88 0 0 1-1.343-.565A1.926 1.926 0 0 1 0 58.38V46.077a1.947 1.947 0 0 1 .557-1.361 1.9 1.9 0 0 1 1.343-.564Zm30.405 0a1.881 1.881 0 0 1 1.344.564 1.945 1.945 0 0 1 .556 1.361V58.38c0 .51-.2 1-.557 1.361-.356.361-.84.565-1.343.565-.504 0-.987-.204-1.343-.565a1.938 1.938 0 0 1-.557-1.361V46.077a1.947 1.947 0 0 1 .556-1.361 1.902 1.902 0 0 1 1.344-.564Zm15.203 0a1.879 1.879 0 0 1 1.344.564 1.93 1.93 0 0 1 .556 1.361V58.38c0 .51-.2 1-.556 1.361a1.89 1.89 0 0 1-1.344.565c-.504 0-.988-.204-1.344-.565a1.938 1.938 0 0 1-.557-1.361V46.077a1.945 1.945 0 0 1 .557-1.361 1.897 1.897 0 0 1 1.344-.564Zm7.6 6.081a1.9 1.9 0 1 1 0 3.801 1.9 1.9 0 0 1 0-3.8ZM76.17 28a1.9 1.9 0 0 1 1.755 1.196c.095.235.144.487.144.742v44.58c0 .515-.2 1.008-.556 1.372-.357.363-.84.567-1.343.567-.504 0-.987-.204-1.344-.567a1.96 1.96 0 0 1-.556-1.371V29.937a1.971 1.971 0 0 1 .555-1.37A1.9 1.9 0 0 1 76.17 28Zm-7.602 8.741a1.878 1.878 0 0 1 1.344.565 1.932 1.932 0 0 1 .557 1.364v27.116c0 .512-.2 1.003-.557 1.364-.356.362-.84.566-1.344.566-.504 0-.987-.204-1.343-.566a1.944 1.944 0 0 1-.557-1.364V38.67a1.953 1.953 0 0 1 .557-1.364 1.898 1.898 0 0 1 1.343-.565Zm15.203 0a1.877 1.877 0 0 1 1.343.565 1.933 1.933 0 0 1 .557 1.364v27.116c0 .512-.2 1.003-.557 1.364-.356.362-.84.566-1.344.566-.503 0-.987-.204-1.343-.566a1.945 1.945 0 0 1-.557-1.364V38.67a1.957 1.957 0 0 1 .557-1.364 1.897 1.897 0 0 1 1.343-.565Zm15.203 0a1.875 1.875 0 0 1 1.343.565 1.931 1.931 0 0 1 .556 1.364v27.116c0 .512-.2 1.003-.557 1.364a1.884 1.884 0 0 1-1.342.566c-.504 0-.988-.204-1.344-.566a1.944 1.944 0 0 1-.557-1.364V38.67a1.955 1.955 0 0 1 .556-1.364 1.9 1.9 0 0 1 1.345-.565Zm-38.007 7.411a1.88 1.88 0 0 1 1.343.564 1.929 1.929 0 0 1 .557 1.361V58.38a1.95 1.95 0 0 1-.556 1.361 1.899 1.899 0 0 1-1.344.565 1.879 1.879 0 0 1-1.344-.565 1.93 1.93 0 0 1-.557-1.361V46.077a1.949 1.949 0 0 1 .557-1.361 1.9 1.9 0 0 1 1.344-.564Zm30.405 0a1.881 1.881 0 0 1 1.344.564 1.929 1.929 0 0 1 .556 1.361V58.38c0 .51-.2 1-.556 1.361-.356.361-.84.565-1.344.565-.504 0-.987-.204-1.344-.565a1.938 1.938 0 0 1-.556-1.361V46.077a1.947 1.947 0 0 1 .556-1.361 1.9 1.9 0 0 1 1.344-.564Zm15.202 0a1.884 1.884 0 0 1 1.344.564 1.928 1.928 0 0 1 .557 1.361V58.38c0 .51-.201 1-.557 1.361-.356.361-.84.565-1.344.565a1.89 1.89 0 0 1-1.344-.565 1.94 1.94 0 0 1-.556-1.361V46.077a1.945 1.945 0 0 1 .556-1.361 1.903 1.903 0 0 1 1.344-.564Zm7.602 6.081a1.9 1.9 0 1 1-.001 3.801 1.9 1.9 0 0 1 .001-3.8Z" fill="#007AFF"/><g filter="url(#a)" fill="#007AFF"><path d="M67.984 16.72c0 9.04-9.688 19.034-16.066 21.622-.135.055-.258-.097-.19-.227.983-1.85 1.602-4.675-.217-4.675-9.097 0-16.472-7.485-16.472-16.72C35.04 7.486 42.414 0 51.511 0c9.098 0 16.473 7.486 16.473 16.72Z"/><path d="M67.984 16.72c0 9.04-9.688 19.034-16.066 21.622-.135.055-.258-.097-.19-.227.983-1.85 1.602-4.675-.217-4.675-9.097 0-16.472-7.485-16.472-16.72C35.04 7.486 42.414 0 51.511 0c9.098 0 16.473 7.486 16.473 16.72Z"/></g><defs><filter id="a" x="19.404" y="0" width="48.581" height="38.353" filterUnits="userSpaceOnUse" color-interpolation-filters="sRGB"><feFlood flood-opacity="0" result="BackgroundImageFix"/><feBlend in="SourceGraphic" in2="BackgroundImageFix" result="shape"/><feColorMatrix in="SourceAlpha" values="0 0 0 0 0 0 0 0 0 0 0 0 0 0 0 0 0 0 127 0" result="hardAlpha"/><feOffset dx="-15.635"/><feGaussianBlur stdDeviation="15.635"/><feComposite in2="hardAlpha" operator="arithmetic" k2="-1" k3="1"/><feColorMatrix values="0 0 0 0 0.80575 0 0 0 0 0.7375 0 0 0 0 1 0 0 0 0.3 0"/><feBlend in2="shape" result="effect1_innerShadow_2772_1548"/></filter></defs></svg>