<svg width="81" height="80" fill="none" xmlns="http://www.w3.org/2000/svg"><path fill-rule="evenodd" clip-rule="evenodd" d="M40.222 80c22.214 0 40.222-17.909 40.222-40S62.436 0 40.222 0C18.008 0 0 17.909 0 40s18.008 40 40.222 40Z" fill="#fff"/><path d="M62 40.493c0 11.07-12.626 23.309-20.95 26.492-.183.07-.35-.12-.258-.284 1.278-2.268 2.077-5.716-.292-5.716-11.874 0-21.5-9.175-21.5-20.492C19 29.175 28.626 20 40.5 20S62 29.175 62 40.493Z" fill="url(#a)"/><path d="M62 40.493c0 11.07-12.626 23.309-20.95 26.492-.183.07-.35-.12-.258-.284 1.278-2.268 2.077-5.716-.292-5.716-11.874 0-21.5-9.175-21.5-20.492C19 29.175 28.626 20 40.5 20S62 29.175 62 40.493Z" fill="url(#b)" fill-opacity=".8"/><path d="M62 40.493c0 11.07-12.626 23.309-20.95 26.492-.183.07-.35-.12-.258-.284 1.278-2.268 2.077-5.716-.292-5.716-11.874 0-21.5-9.175-21.5-20.492C19 29.175 28.626 20 40.5 20S62 29.175 62 40.493Z" fill="url(#c)" fill-opacity=".8"/><path d="M62 40.493c0 11.07-12.626 23.309-20.95 26.492-.183.07-.35-.12-.258-.284 1.278-2.268 2.077-5.716-.292-5.716-11.874 0-21.5-9.175-21.5-20.492C19 29.175 28.626 20 40.5 20S62 29.175 62 40.493Z" fill="url(#d)" fill-opacity=".8"/><path d="M62 40.493c0 11.07-12.626 23.309-20.95 26.492-.183.07-.35-.12-.258-.284 1.278-2.268 2.077-5.716-.292-5.716-11.874 0-21.5-9.175-21.5-20.492C19 29.175 28.626 20 40.5 20S62 29.175 62 40.493Z" fill="url(#e)"/><path d="M62 40.493c0 11.07-12.626 23.309-20.95 26.492-.183.07-.35-.12-.258-.284 1.278-2.268 2.077-5.716-.292-5.716-11.874 0-21.5-9.175-21.5-20.492C19 29.175 28.626 20 40.5 20S62 29.175 62 40.493Z" fill="url(#f)" fill-opacity=".8"/><path d="M62 40.493c0 11.07-12.626 23.309-20.95 26.492-.183.07-.35-.12-.258-.284 1.278-2.268 2.077-5.716-.292-5.716-11.874 0-21.5-9.175-21.5-20.492C19 29.175 28.626 20 40.5 20S62 29.175 62 40.493Z" fill="url(#g)" fill-opacity=".8"/><path d="M62 40.493c0 11.07-12.626 23.309-20.95 26.492-.183.07-.35-.12-.258-.284 1.278-2.268 2.077-5.716-.292-5.716-11.874 0-21.5-9.175-21.5-20.492C19 29.175 28.626 20 40.5 20S62 29.175 62 40.493Z" fill="url(#h)" fill-opacity=".8"/><path d="M28.107 36.154c-.127 0-.254.024-.372.07a.98.98 0 0 0-.315.2.92.92 0 0 0-.21.298.877.877 0 0 0-.075.352v5.879c0 .12.025.24.074.352.049.112.12.213.21.298a1.018 1.018 0 0 0 1.375 0 .917.917 0 0 0 .211-.298.877.877 0 0 0 .074-.352v-5.879c0-.12-.025-.24-.073-.352a.919.919 0 0 0-.211-.299.978.978 0 0 0-.316-.2 1.02 1.02 0 0 0-.372-.07ZM31.997 32.612a1.017 1.017 0 0 0-.688.27.92.92 0 0 0-.21.299.88.88 0 0 0-.075.353v12.958c0 .245.103.48.285.652a1 1 0 0 0 .688.27 1 1 0 0 0 .687-.27.899.899 0 0 0 .285-.652V33.534a.88.88 0 0 0-.074-.353.92.92 0 0 0-.211-.3 1.017 1.017 0 0 0-.687-.27ZM35.885 28.435a.979.979 0 0 0-.688.271.89.89 0 0 0-.285.655v21.305c0 .245.103.481.285.655.182.174.43.271.688.271a.997.997 0 0 0 .687-.271.905.905 0 0 0 .285-.655V29.36a.888.888 0 0 0-.074-.355.923.923 0 0 0-.211-.3.976.976 0 0 0-.315-.2 1.015 1.015 0 0 0-.372-.071ZM39.774 32.612a1.017 1.017 0 0 0-.688.27.92.92 0 0 0-.21.299.88.88 0 0 0-.074.353v12.958c0 .245.102.48.284.652a1 1 0 0 0 .688.27 1 1 0 0 0 .687-.27.898.898 0 0 0 .285-.652V33.534a.88.88 0 0 0-.074-.353.922.922 0 0 0-.21-.3 1.017 1.017 0 0 0-.688-.27ZM43.66 36.154a1.02 1.02 0 0 0-.371.07.978.978 0 0 0-.316.2.919.919 0 0 0-.21.298.879.879 0 0 0-.075.352v5.879c0 .244.103.478.285.65.183.173.43.27.688.27.257 0 .505-.097.687-.27a.896.896 0 0 0 .285-.65v-5.879c0-.12-.025-.24-.074-.352a.919.919 0 0 0-.211-.299.978.978 0 0 0-.315-.2 1.02 1.02 0 0 0-.372-.07ZM47.867 33.241a1.017 1.017 0 0 0-.688.27.923.923 0 0 0-.21.3.881.881 0 0 0-.075.352v12.959c0 .244.103.479.285.652a1 1 0 0 0 .688.27 1 1 0 0 0 .687-.27.898.898 0 0 0 .285-.652V34.163a.88.88 0 0 0-.074-.353.92.92 0 0 0-.211-.299 1.017 1.017 0 0 0-.687-.27ZM51.437 36.154c-.128 0-.254.024-.372.07a.98.98 0 0 0-.316.2.917.917 0 0 0-.21.298.877.877 0 0 0-.075.352v5.879c0 .244.103.478.285.65a1 1 0 0 0 .688.27c.258 0 .505-.097.687-.27a.896.896 0 0 0 .285-.65v-5.879c0-.12-.025-.24-.074-.352a.917.917 0 0 0-.21-.299.98.98 0 0 0-.316-.2 1.021 1.021 0 0 0-.372-.07ZM54.355 39.968c0-.502.435-.908.972-.908.537 0 .972.406.972.908 0 .501-.435.908-.972.908-.537 0-.972-.407-.972-.908Z" fill="#E8FFDB"/><g clip-path="url(#i)"><path d="m61.131 19.89-1.818-2.068.254-2.733-2.69-.607-1.407-2.37-2.532 1.08-2.533-1.08-1.408 2.362-2.689.6.254 2.741-1.818 2.074 1.818 2.067-.254 2.74 2.69.608 1.407 2.363 2.533-1.089 2.532 1.082 1.408-2.363 2.689-.608-.254-2.733 1.818-2.067Zm-9.616 3.495-2.83-2.822 1.102-1.096 1.728 1.726 4.357-4.348 1.103 1.096-5.46 5.444Z" fill="#007AFF"/></g><defs><radialGradient id="b" cx="0" cy="0" r="1" gradientUnits="userSpaceOnUse" gradientTransform="rotate(95.638 10.898 18.783) scale(57.4955 87.8481)"><stop stop-color="#52B6FF"/><stop offset="1" stop-color="#8F41EE" stop-opacity="0"/></radialGradient><radialGradient id="c" cx="0" cy="0" r="1" gradientUnits="userSpaceOnUse" gradientTransform="rotate(64.249 -2.856 35.633) scale(23.066 62.7968)"><stop stop-color="#9DD6FF"/><stop offset="1" stop-color="#E8FFDB" stop-opacity="0"/></radialGradient><radialGradient id="d" cx="0" cy="0" r="1" gradientUnits="userSpaceOnUse" gradientTransform="matrix(-29.51703 23.15929 -32.6547 -41.61916 82.407 55.931)"><stop stop-color="#007AFF"/><stop offset="1" stop-color="#E8FFDB" stop-opacity="0"/></radialGradient><radialGradient id="f" cx="0" cy="0" r="1" gradientUnits="userSpaceOnUse" gradientTransform="rotate(95.638 10.898 18.783) scale(57.4955 87.8481)"><stop stop-color="#52B6FF"/><stop offset="1" stop-color="#8F41EE" stop-opacity="0"/></radialGradient><radialGradient id="g" cx="0" cy="0" r="1" gradientUnits="userSpaceOnUse" gradientTransform="rotate(64.249 -2.856 35.633) scale(23.066 62.7968)"><stop stop-color="#9DD6FF"/><stop offset="1" stop-color="#E8FFDB" stop-opacity="0"/></radialGradient><radialGradient id="h" cx="0" cy="0" r="1" gradientUnits="userSpaceOnUse" gradientTransform="matrix(-29.51703 23.15929 -32.6547 -41.61916 82.407 55.931)"><stop stop-color="#007AFF"/><stop offset="1" stop-color="#E8FFDB" stop-opacity="0"/></radialGradient><linearGradient id="a" x1="62" y1="15.062" x2="17.367" y2="67.216" gradientUnits="userSpaceOnUse"><stop stop-color="#007AFF"/><stop offset=".528" stop-color="#40A4E1"/><stop offset="1" stop-color="#E8FFDB"/></linearGradient><linearGradient id="e" x1="62" y1="15.062" x2="17.367" y2="67.216" gradientUnits="userSpaceOnUse"><stop stop-color="#007AFF"/><stop offset=".528" stop-color="#40A4E1"/><stop offset="1" stop-color="#E8FFDB"/></linearGradient><clipPath id="i"><path fill="#fff" transform="translate(44 11)" d="M0 0h17.877v17.778H0z"/></clipPath></defs></svg>